<svg xmlns="http://www.w3.org/2000/svg" xmlns:xlink="http://www.w3.org/1999/xlink" width="500" zoomAndPan="magnify" viewBox="0 0 375 374.999991" height="500" preserveAspectRatio="xMidYMid meet" version="1.0"><defs><g/><clipPath id="12e8afa631"><path d="M 194 103 L 285.554688 103 L 285.554688 190 L 194 190 Z M 194 103 " clip-rule="nonzero"/></clipPath><clipPath id="be391ae0b2"><path d="M 144 49.003906 L 231 49.003906 L 231 244.753906 L 144 244.753906 Z M 144 49.003906 " clip-rule="nonzero"/></clipPath><clipPath id="6bad2167f1"><path d="M 89.804688 103 L 181 103 L 181 190 L 89.804688 190 Z M 89.804688 103 " clip-rule="nonzero"/></clipPath></defs><rect x="-37.5" width="450" fill="#ffffff" y="-37.499999" height="449.999989" fill-opacity="1"/><rect x="-37.5" width="450" fill="#ffffff" y="-37.499999" height="449.999989" fill-opacity="1"/><g clip-path="url(#12e8afa631)"><path fill="#2f2e41" d="M 194.949219 189.734375 L 211.65625 189.734375 L 211.65625 177.382812 L 207.300781 177.382812 C 207.300781 165.742188 207.300781 154.101562 207.300781 142.460938 L 194.949219 142.460938 C 194.949219 158.21875 194.949219 173.976562 194.949219 189.734375 Z M 269.480469 146.71875 L 245.300781 177.382812 L 241.183594 177.382812 L 241.183594 189.734375 L 251.261719 189.734375 L 285.191406 146.71875 L 251.261719 103.707031 L 194.949219 103.707031 L 194.949219 123.722656 L 207.300781 123.722656 L 207.300781 116.058594 L 245.300781 116.058594 Z M 269.480469 146.71875 " fill-opacity="1" fill-rule="evenodd"/></g><g clip-path="url(#be391ae0b2)"><path fill="#ffb163" d="M 164.523438 139.242188 L 164.523438 126.894531 L 156.859375 126.894531 L 156.859375 88.894531 L 187.519531 64.714844 L 218.183594 88.894531 L 218.183594 93.011719 L 230.535156 93.011719 L 230.535156 82.933594 L 187.519531 49.003906 L 144.507812 82.933594 L 144.507812 139.242188 Z M 210.519531 154.148438 L 210.519531 166.5 L 218.183594 166.5 L 218.183594 204.5 L 187.519531 228.679688 L 156.859375 204.5 L 156.859375 200.382812 L 144.507812 200.382812 L 144.507812 210.460938 L 187.519531 244.390625 L 230.535156 210.460938 L 230.535156 154.148438 Z M 144.507812 154.148438 L 144.507812 170.855469 L 156.859375 170.855469 L 156.859375 166.5 C 168.5 166.5 180.140625 166.5 191.78125 166.5 L 191.78125 154.148438 C 176.023438 154.148438 160.265625 154.148438 144.507812 154.148438 Z M 230.582031 139.242188 L 230.582031 122.539062 L 218.230469 122.539062 L 218.230469 126.894531 C 206.589844 126.894531 194.949219 126.894531 183.308594 126.894531 L 183.308594 139.242188 C 199.066406 139.242188 214.824219 139.242188 230.582031 139.242188 Z M 230.582031 139.242188 " fill-opacity="1" fill-rule="evenodd"/></g><g clip-path="url(#6bad2167f1)"><path fill="#2f2e41" d="M 105.515625 146.671875 L 129.695312 116.007812 L 133.8125 116.007812 L 133.8125 103.660156 L 123.734375 103.660156 L 89.804688 146.671875 L 123.734375 189.6875 L 180.042969 189.6875 L 180.042969 169.671875 L 167.695312 169.671875 L 167.695312 177.335938 L 129.695312 177.335938 Z M 167.695312 150.933594 L 180.042969 150.933594 C 180.042969 135.175781 180.042969 119.417969 180.042969 103.660156 L 163.339844 103.660156 L 163.339844 116.007812 L 167.695312 116.007812 C 167.695312 127.648438 167.695312 139.292969 167.695312 150.933594 Z M 167.695312 150.933594 " fill-opacity="1" fill-rule="evenodd"/></g><path fill="#b6b6b7" d="M 255.046875 139.859375 L 255.046875 145.773438 L 249.132812 145.773438 L 249.132812 139.859375 Z M 180.660156 79.148438 L 186.574219 79.148438 L 186.574219 85.0625 L 180.660156 85.0625 Z M 180.660156 200.570312 L 186.574219 200.570312 L 186.574219 206.488281 L 180.660156 206.488281 Z M 188.375 200.570312 L 194.289062 200.570312 L 194.289062 206.488281 L 188.375 206.488281 Z M 194.289062 208.285156 L 194.289062 214.199219 L 188.375 214.199219 L 188.375 208.285156 Z M 186.574219 214.199219 L 180.660156 214.199219 L 180.660156 208.285156 L 186.574219 208.285156 Z M 188.375 79.097656 L 194.289062 79.097656 L 194.289062 85.015625 L 188.375 85.015625 Z M 194.289062 86.8125 L 194.289062 92.726562 L 188.375 92.726562 L 188.375 86.8125 Z M 186.574219 92.726562 L 180.660156 92.726562 L 180.660156 86.8125 L 186.574219 86.8125 Z M 133.574219 139.765625 L 133.574219 145.679688 L 127.660156 145.679688 L 127.660156 139.765625 Z M 133.574219 147.476562 L 133.574219 153.394531 L 127.660156 153.394531 L 127.660156 147.476562 Z M 125.863281 153.394531 L 119.949219 153.394531 L 119.949219 147.476562 L 125.863281 147.476562 Z M 119.949219 145.679688 L 119.949219 139.765625 L 125.863281 139.765625 L 125.863281 145.679688 Z M 255.046875 147.476562 L 255.046875 153.394531 L 249.132812 153.394531 L 249.132812 147.476562 Z M 247.335938 153.394531 L 241.417969 153.394531 L 241.417969 147.476562 L 247.335938 147.476562 Z M 241.417969 145.679688 L 241.417969 139.765625 L 247.335938 139.765625 L 247.335938 145.679688 Z M 241.417969 145.679688 " fill-opacity="1" fill-rule="evenodd"/><g fill="#ffb163" fill-opacity="1"><g transform="translate(46.682351, 304.218396)"><g><path d="M 17.890625 -40.089844 C 17.339844 -40.089844 17.085938 -39.789062 17.085938 -39.285156 L 17.085938 -18.140625 L 16.785156 -18.140625 L 9.171875 -39.4375 C 9.019531 -39.886719 8.71875 -40.089844 8.269531 -40.089844 L 3.308594 -40.089844 C 2.804688 -40.089844 2.503906 -39.789062 2.503906 -39.285156 L 2.503906 -0.800781 C 2.503906 -0.300781 2.804688 0 3.308594 0 L 8.519531 0 C 9.070312 0 9.320312 -0.300781 9.320312 -0.800781 L 9.320312 -22.046875 L 9.570312 -22.046875 L 17.238281 -0.652344 C 17.386719 -0.199219 17.6875 0 18.140625 0 L 23.101562 0 C 23.601562 0 23.902344 -0.300781 23.902344 -0.800781 L 23.902344 -39.285156 C 23.902344 -39.789062 23.601562 -40.089844 23.101562 -40.089844 Z M 17.890625 -40.089844 "/></g></g></g><g fill="#ffb163" fill-opacity="1"><g transform="translate(73.088537, 304.218396)"><g><path d="M 22.5 -39.285156 C 22.5 -39.789062 22.300781 -40.089844 21.699219 -40.089844 L 3.257812 -40.089844 C 2.804688 -40.089844 2.503906 -39.789062 2.503906 -39.285156 L 2.503906 -0.800781 C 2.503906 -0.300781 2.804688 0 3.257812 0 L 21.699219 0 C 22.300781 0 22.5 -0.300781 22.5 -0.800781 L 22.5 -5.8125 C 22.5 -6.363281 22.300781 -6.613281 21.699219 -6.613281 L 9.171875 -6.613281 L 9.171875 -16.738281 L 18.742188 -16.738281 C 19.242188 -16.738281 19.542969 -17.039062 19.542969 -17.589844 L 19.542969 -22.550781 C 19.542969 -23.101562 19.242188 -23.402344 18.742188 -23.402344 L 9.171875 -23.402344 L 9.171875 -33.421875 L 21.699219 -33.421875 C 22.300781 -33.421875 22.5 -33.773438 22.5 -34.273438 Z M 22.5 -39.285156 "/></g></g></g><g fill="#ffb163" fill-opacity="1"><g transform="translate(98.091738, 304.218396)"><g><path d="M 29.914062 -40.089844 C 29.3125 -40.089844 28.914062 -39.738281 28.863281 -39.136719 L 26.808594 -15.683594 L 26.558594 -15.683594 L 21.648438 -39.1875 C 21.496094 -39.789062 21.144531 -40.089844 20.546875 -40.089844 L 17.539062 -40.089844 C 16.9375 -40.089844 16.585938 -39.789062 16.4375 -39.1875 L 11.476562 -15.683594 L 11.226562 -15.683594 L 9.269531 -39.136719 C 9.21875 -39.738281 8.820312 -40.089844 8.21875 -40.089844 L 3.457031 -40.089844 C 2.804688 -40.089844 2.457031 -39.6875 2.503906 -39.035156 L 6.613281 -0.953125 C 6.664062 -0.300781 7.015625 0 7.667969 0 L 12.679688 0 C 13.277344 0 13.628906 -0.300781 13.78125 -0.851562 L 19.042969 -23.550781 L 24.253906 -0.902344 C 24.402344 -0.300781 24.753906 0 25.355469 0 L 30.265625 0 C 30.917969 0 31.269531 -0.300781 31.320312 -0.953125 L 35.628906 -39.035156 C 35.679688 -39.6875 35.328125 -40.089844 34.675781 -40.089844 Z M 29.914062 -40.089844 "/></g></g></g><g fill="#ffb163" fill-opacity="1"><g transform="translate(136.222868, 304.218396)"><g/></g></g><g fill="#ffb163" fill-opacity="1"><g transform="translate(148.749517, 304.218396)"><g><path d="M 15.734375 -8.617188 C 15.734375 -7.316406 15.03125 -6.613281 13.730469 -6.613281 L 11.125 -6.613281 C 9.820312 -6.613281 9.121094 -7.316406 9.121094 -8.617188 L 9.121094 -12.425781 C 9.121094 -12.929688 8.820312 -13.230469 8.316406 -13.230469 L 3.308594 -13.230469 C 2.757812 -13.230469 2.503906 -12.929688 2.503906 -12.425781 L 2.503906 -7.214844 C 2.503906 -2.503906 5.011719 0 9.722656 0 L 15.332031 0 C 19.992188 0 22.550781 -2.503906 22.550781 -7.214844 L 22.550781 -39.285156 C 22.550781 -39.789062 22.25 -40.089844 21.746094 -40.089844 L 16.535156 -40.089844 C 15.984375 -40.089844 15.734375 -39.789062 15.734375 -39.285156 Z M 15.734375 -8.617188 "/></g></g></g><g fill="#ffb163" fill-opacity="1"><g transform="translate(173.802817, 304.218396)"><g><path d="M 2.503906 -7.214844 C 2.503906 -2.503906 5.011719 0 9.722656 0 L 15.332031 0 C 20.042969 0 22.550781 -2.503906 22.550781 -7.214844 L 22.550781 -32.871094 C 22.550781 -37.582031 20.042969 -40.089844 15.332031 -40.089844 L 9.722656 -40.089844 C 5.011719 -40.089844 2.503906 -37.582031 2.503906 -32.871094 Z M 11.175781 -6.464844 C 9.871094 -6.464844 9.171875 -7.117188 9.171875 -8.46875 L 9.171875 -31.621094 C 9.171875 -32.921875 9.871094 -33.625 11.175781 -33.625 L 14.082031 -33.625 C 15.382812 -33.625 16.085938 -32.921875 16.085938 -31.621094 L 16.085938 -8.46875 C 16.085938 -7.117188 15.382812 -6.464844 14.082031 -6.464844 Z M 11.175781 -6.464844 "/></g></g></g><g fill="#ffb163" fill-opacity="1"><g transform="translate(198.856116, 304.218396)"><g><path d="M 16.9375 -40.089844 C 16.386719 -40.089844 15.933594 -39.636719 15.933594 -39.085938 L 15.933594 -8.617188 C 15.933594 -7.265625 15.234375 -6.613281 13.929688 -6.613281 L 11.324219 -6.613281 C 10.023438 -6.613281 9.320312 -7.265625 9.320312 -8.617188 L 9.320312 -39.085938 C 9.320312 -39.636719 8.871094 -40.089844 8.316406 -40.089844 L 3.507812 -40.089844 C 2.957031 -40.089844 2.503906 -39.636719 2.503906 -39.085938 L 2.503906 -7.214844 C 2.503906 -2.503906 5.011719 0 9.722656 0 L 15.332031 0 C 20.042969 0 22.550781 -2.503906 22.550781 -7.214844 L 22.550781 -39.085938 C 22.550781 -39.636719 22.097656 -40.089844 21.546875 -40.089844 Z M 16.9375 -40.089844 "/></g></g></g><g fill="#ffb163" fill-opacity="1"><g transform="translate(223.909415, 304.218396)"><g><path d="M 23.101562 -32.871094 C 23.101562 -37.582031 20.59375 -40.089844 15.886719 -40.089844 L 3.308594 -40.089844 C 2.804688 -40.089844 2.503906 -39.789062 2.503906 -39.285156 L 2.503906 -0.800781 C 2.503906 -0.300781 2.804688 0 3.308594 0 L 8.519531 0 C 9.019531 0 9.320312 -0.300781 9.320312 -0.800781 L 9.320312 -13.429688 L 12.777344 -13.429688 L 16.136719 -0.703125 C 16.234375 -0.25 16.484375 0 16.988281 0 L 22.199219 0 C 22.75 0 23.050781 -0.300781 22.898438 -0.902344 L 19.441406 -14.03125 C 21.847656 -15.082031 23.101562 -17.289062 23.101562 -20.644531 Z M 9.320312 -20.042969 L 9.320312 -33.472656 L 14.28125 -33.472656 C 15.585938 -33.472656 16.285156 -32.773438 16.285156 -31.46875 L 16.285156 -22.046875 C 16.285156 -20.746094 15.585938 -20.042969 14.28125 -20.042969 Z M 9.320312 -20.042969 "/></g></g></g><g fill="#ffb163" fill-opacity="1"><g transform="translate(249.513895, 304.218396)"><g><path d="M 17.890625 -40.089844 C 17.339844 -40.089844 17.085938 -39.789062 17.085938 -39.285156 L 17.085938 -18.140625 L 16.785156 -18.140625 L 9.171875 -39.4375 C 9.019531 -39.886719 8.71875 -40.089844 8.269531 -40.089844 L 3.308594 -40.089844 C 2.804688 -40.089844 2.503906 -39.789062 2.503906 -39.285156 L 2.503906 -0.800781 C 2.503906 -0.300781 2.804688 0 3.308594 0 L 8.519531 0 C 9.070312 0 9.320312 -0.300781 9.320312 -0.800781 L 9.320312 -22.046875 L 9.570312 -22.046875 L 17.238281 -0.652344 C 17.386719 -0.199219 17.6875 0 18.140625 0 L 23.101562 0 C 23.601562 0 23.902344 -0.300781 23.902344 -0.800781 L 23.902344 -39.285156 C 23.902344 -39.789062 23.601562 -40.089844 23.101562 -40.089844 Z M 17.890625 -40.089844 "/></g></g></g><g fill="#ffb163" fill-opacity="1"><g transform="translate(275.920081, 304.218396)"><g><path d="M 22.5 -39.285156 C 22.5 -39.789062 22.300781 -40.089844 21.699219 -40.089844 L 3.257812 -40.089844 C 2.804688 -40.089844 2.503906 -39.789062 2.503906 -39.285156 L 2.503906 -0.800781 C 2.503906 -0.300781 2.804688 0 3.257812 0 L 21.699219 0 C 22.300781 0 22.5 -0.300781 22.5 -0.800781 L 22.5 -5.8125 C 22.5 -6.363281 22.300781 -6.613281 21.699219 -6.613281 L 9.171875 -6.613281 L 9.171875 -16.738281 L 18.742188 -16.738281 C 19.242188 -16.738281 19.542969 -17.039062 19.542969 -17.589844 L 19.542969 -22.550781 C 19.542969 -23.101562 19.242188 -23.402344 18.742188 -23.402344 L 9.171875 -23.402344 L 9.171875 -33.421875 L 21.699219 -33.421875 C 22.300781 -33.421875 22.5 -33.773438 22.5 -34.273438 Z M 22.5 -39.285156 "/></g></g></g><g fill="#ffb163" fill-opacity="1"><g transform="translate(300.923282, 304.218396)"><g><path d="M 20.445312 -40.089844 C 19.84375 -40.089844 19.492188 -39.835938 19.292969 -39.285156 L 13.679688 -24.90625 L 8.066406 -39.285156 C 7.867188 -39.835938 7.515625 -40.089844 6.914062 -40.089844 L 1.902344 -40.089844 C 1.152344 -40.089844 0.800781 -39.636719 1.101562 -38.933594 L 10.273438 -16.636719 L 10.273438 -1.003906 C 10.273438 -0.351562 10.625 0 11.273438 0 L 16.085938 0 C 16.738281 0 17.085938 -0.351562 17.085938 -1.003906 L 17.085938 -16.636719 L 26.257812 -38.933594 C 26.558594 -39.636719 26.207031 -40.089844 25.457031 -40.089844 Z M 20.445312 -40.089844 "/></g></g></g><g fill="#2f2e41" fill-opacity="1"><g transform="translate(86.819711, 332.885792)"><g><path d="M 8.296875 -14.457031 C 8.296875 -14.640625 8.1875 -14.753906 8.003906 -14.753906 L 1.21875 -14.753906 C 1.015625 -14.753906 0.921875 -14.640625 0.921875 -14.457031 L 0.921875 -0.296875 C 0.921875 -0.109375 1.015625 0 1.21875 0 L 3.136719 0 C 3.320312 0 3.429688 -0.109375 3.429688 -0.296875 L 3.429688 -6.175781 L 6.898438 -6.175781 C 7.082031 -6.175781 7.191406 -6.269531 7.191406 -6.472656 L 7.191406 -8.316406 C 7.191406 -8.5 7.082031 -8.613281 6.898438 -8.613281 L 3.429688 -8.613281 L 3.429688 -12.316406 L 8.003906 -12.316406 C 8.1875 -12.316406 8.296875 -12.429688 8.296875 -12.613281 Z M 8.296875 -14.457031 "/></g></g></g><g fill="#2f2e41" fill-opacity="1"><g transform="translate(96.959289, 332.885792)"><g><path d="M 1.21875 -14.753906 C 1.015625 -14.753906 0.921875 -14.640625 0.921875 -14.457031 L 0.921875 -0.296875 C 0.921875 -0.109375 1.015625 0 1.21875 0 L 3.136719 0 C 3.320312 0 3.429688 -0.109375 3.429688 -0.296875 L 3.429688 -14.457031 C 3.429688 -14.640625 3.320312 -14.753906 3.136719 -14.753906 Z M 1.21875 -14.753906 "/></g></g></g><g fill="#2f2e41" fill-opacity="1"><g transform="translate(102.232162, 332.885792)"><g><path d="M 6.582031 -14.753906 C 6.378906 -14.753906 6.289062 -14.640625 6.289062 -14.457031 L 6.289062 -6.675781 L 6.175781 -6.675781 L 3.375 -14.511719 C 3.320312 -14.679688 3.207031 -14.753906 3.042969 -14.753906 L 1.21875 -14.753906 C 1.03125 -14.753906 0.921875 -14.640625 0.921875 -14.457031 L 0.921875 -0.296875 C 0.921875 -0.109375 1.03125 0 1.21875 0 L 3.136719 0 C 3.335938 0 3.429688 -0.109375 3.429688 -0.296875 L 3.429688 -8.113281 L 3.523438 -8.113281 L 6.34375 -0.238281 C 6.398438 -0.0742188 6.507812 0 6.675781 0 L 8.5 0 C 8.683594 0 8.796875 -0.109375 8.796875 -0.296875 L 8.796875 -14.457031 C 8.796875 -14.640625 8.683594 -14.753906 8.5 -14.753906 Z M 6.582031 -14.753906 "/></g></g></g><g fill="#2f2e41" fill-opacity="1"><g transform="translate(112.869472, 332.885792)"><g><path d="M 0.921875 -0.296875 C 0.921875 -0.09375 1.015625 0 1.21875 0 L 5.644531 0 C 7.375 0 8.296875 -0.921875 8.296875 -2.65625 L 8.296875 -12.078125 C 8.296875 -13.8125 7.375 -14.753906 5.644531 -14.753906 L 1.21875 -14.753906 C 1.015625 -14.753906 0.921875 -14.640625 0.921875 -14.457031 Z M 3.429688 -2.433594 L 3.429688 -12.316406 L 5.125 -12.316406 C 5.605469 -12.316406 5.863281 -12.058594 5.863281 -11.5625 L 5.863281 -3.171875 C 5.863281 -2.671875 5.605469 -2.433594 5.125 -2.433594 Z M 3.429688 -2.433594 "/></g></g></g><g fill="#2f2e41" fill-opacity="1"><g transform="translate(123.009048, 332.885792)"><g/></g></g><g fill="#2f2e41" fill-opacity="1"><g transform="translate(128.54, 332.885792)"><g><path d="M 7.523438 -14.753906 C 7.300781 -14.753906 7.171875 -14.660156 7.097656 -14.457031 L 5.035156 -9.164062 L 2.96875 -14.457031 C 2.894531 -14.660156 2.765625 -14.753906 2.542969 -14.753906 L 0.699219 -14.753906 C 0.425781 -14.753906 0.296875 -14.585938 0.40625 -14.328125 L 3.78125 -6.121094 L 3.78125 -0.367188 C 3.78125 -0.128906 3.910156 0 4.148438 0 L 5.917969 0 C 6.160156 0 6.289062 -0.128906 6.289062 -0.367188 L 6.289062 -6.121094 L 9.664062 -14.328125 C 9.773438 -14.585938 9.644531 -14.753906 9.367188 -14.753906 Z M 7.523438 -14.753906 "/></g></g></g><g fill="#2f2e41" fill-opacity="1"><g transform="translate(139.52757, 332.885792)"><g><path d="M 0.921875 -2.65625 C 0.921875 -0.921875 1.84375 0 3.578125 0 L 5.644531 0 C 7.375 0 8.296875 -0.921875 8.296875 -2.65625 L 8.296875 -12.097656 C 8.296875 -13.828125 7.375 -14.753906 5.644531 -14.753906 L 3.578125 -14.753906 C 1.84375 -14.753906 0.921875 -13.828125 0.921875 -12.097656 Z M 4.113281 -2.378906 C 3.632812 -2.378906 3.375 -2.617188 3.375 -3.117188 L 3.375 -11.636719 C 3.375 -12.113281 3.632812 -12.375 4.113281 -12.375 L 5.183594 -12.375 C 5.660156 -12.375 5.917969 -12.113281 5.917969 -11.636719 L 5.917969 -3.117188 C 5.917969 -2.617188 5.660156 -2.378906 5.183594 -2.378906 Z M 4.113281 -2.378906 "/></g></g></g><g fill="#2f2e41" fill-opacity="1"><g transform="translate(149.667147, 332.885792)"><g><path d="M 6.234375 -14.753906 C 6.03125 -14.753906 5.863281 -14.585938 5.863281 -14.382812 L 5.863281 -3.171875 C 5.863281 -2.671875 5.605469 -2.433594 5.125 -2.433594 L 4.167969 -2.433594 C 3.6875 -2.433594 3.429688 -2.671875 3.429688 -3.171875 L 3.429688 -14.382812 C 3.429688 -14.585938 3.265625 -14.753906 3.0625 -14.753906 L 1.289062 -14.753906 C 1.089844 -14.753906 0.921875 -14.585938 0.921875 -14.382812 L 0.921875 -2.65625 C 0.921875 -0.921875 1.84375 0 3.578125 0 L 5.644531 0 C 7.375 0 8.296875 -0.921875 8.296875 -2.65625 L 8.296875 -14.382812 C 8.296875 -14.585938 8.132812 -14.753906 7.929688 -14.753906 Z M 6.234375 -14.753906 "/></g></g></g><g fill="#2f2e41" fill-opacity="1"><g transform="translate(159.806727, 332.885792)"><g><path d="M 8.5 -12.097656 C 8.5 -13.828125 7.578125 -14.753906 5.84375 -14.753906 L 1.21875 -14.753906 C 1.03125 -14.753906 0.921875 -14.640625 0.921875 -14.457031 L 0.921875 -0.296875 C 0.921875 -0.109375 1.03125 0 1.21875 0 L 3.136719 0 C 3.320312 0 3.429688 -0.109375 3.429688 -0.296875 L 3.429688 -4.941406 L 4.703125 -4.941406 L 5.9375 -0.257812 C 5.972656 -0.09375 6.066406 0 6.25 0 L 8.167969 0 C 8.371094 0 8.480469 -0.109375 8.425781 -0.332031 L 7.15625 -5.164062 C 8.039062 -5.550781 8.5 -6.363281 8.5 -7.597656 Z M 3.429688 -7.375 L 3.429688 -12.316406 L 5.253906 -12.316406 C 5.734375 -12.316406 5.992188 -12.058594 5.992188 -11.582031 L 5.992188 -8.113281 C 5.992188 -7.632812 5.734375 -7.375 5.253906 -7.375 Z M 3.429688 -7.375 "/></g></g></g><g fill="#2f2e41" fill-opacity="1"><g transform="translate(170.149096, 332.885792)"><g/></g></g><g fill="#2f2e41" fill-opacity="1"><g transform="translate(175.680048, 332.885792)"><g><path d="M 0.921875 -0.296875 C 0.921875 -0.09375 1.015625 0 1.21875 0 L 5.644531 0 C 7.375 0 8.296875 -0.921875 8.296875 -2.65625 L 8.296875 -12.078125 C 8.296875 -13.8125 7.375 -14.753906 5.644531 -14.753906 L 1.21875 -14.753906 C 1.015625 -14.753906 0.921875 -14.640625 0.921875 -14.457031 Z M 3.429688 -2.433594 L 3.429688 -12.316406 L 5.125 -12.316406 C 5.605469 -12.316406 5.863281 -12.058594 5.863281 -11.5625 L 5.863281 -3.171875 C 5.863281 -2.671875 5.605469 -2.433594 5.125 -2.433594 Z M 3.429688 -2.433594 "/></g></g></g><g fill="#2f2e41" fill-opacity="1"><g transform="translate(185.819624, 332.885792)"><g><path d="M 8.5 -12.097656 C 8.5 -13.828125 7.578125 -14.753906 5.84375 -14.753906 L 1.21875 -14.753906 C 1.03125 -14.753906 0.921875 -14.640625 0.921875 -14.457031 L 0.921875 -0.296875 C 0.921875 -0.109375 1.03125 0 1.21875 0 L 3.136719 0 C 3.320312 0 3.429688 -0.109375 3.429688 -0.296875 L 3.429688 -4.941406 L 4.703125 -4.941406 L 5.9375 -0.257812 C 5.972656 -0.09375 6.066406 0 6.25 0 L 8.167969 0 C 8.371094 0 8.480469 -0.109375 8.425781 -0.332031 L 7.15625 -5.164062 C 8.039062 -5.550781 8.5 -6.363281 8.5 -7.597656 Z M 3.429688 -7.375 L 3.429688 -12.316406 L 5.253906 -12.316406 C 5.734375 -12.316406 5.992188 -12.058594 5.992188 -11.582031 L 5.992188 -8.113281 C 5.992188 -7.632812 5.734375 -7.375 5.253906 -7.375 Z M 3.429688 -7.375 "/></g></g></g><g fill="#2f2e41" fill-opacity="1"><g transform="translate(196.161993, 332.885792)"><g><path d="M 8.28125 -14.457031 C 8.28125 -14.640625 8.207031 -14.753906 7.984375 -14.753906 L 1.199219 -14.753906 C 1.03125 -14.753906 0.921875 -14.640625 0.921875 -14.457031 L 0.921875 -0.296875 C 0.921875 -0.109375 1.03125 0 1.199219 0 L 7.984375 0 C 8.207031 0 8.28125 -0.109375 8.28125 -0.296875 L 8.28125 -2.140625 C 8.28125 -2.34375 8.207031 -2.433594 7.984375 -2.433594 L 3.375 -2.433594 L 3.375 -6.160156 L 6.898438 -6.160156 C 7.082031 -6.160156 7.191406 -6.269531 7.191406 -6.472656 L 7.191406 -8.296875 C 7.191406 -8.5 7.082031 -8.613281 6.898438 -8.613281 L 3.375 -8.613281 L 3.375 -12.300781 L 7.984375 -12.300781 C 8.207031 -12.300781 8.28125 -12.429688 8.28125 -12.613281 Z M 8.28125 -14.457031 "/></g></g></g><g fill="#2f2e41" fill-opacity="1"><g transform="translate(206.283139, 332.885792)"><g><path d="M 9.808594 0 C 10.03125 0 10.105469 -0.109375 10.066406 -0.3125 L 7.007812 -14.492188 C 6.96875 -14.679688 6.859375 -14.753906 6.695312 -14.753906 L 4.128906 -14.753906 C 3.964844 -14.753906 3.855469 -14.679688 3.816406 -14.492188 L 0.757812 -0.3125 C 0.699219 -0.109375 0.792969 0 0.996094 0 L 2.96875 0 C 3.136719 0 3.226562 -0.09375 3.265625 -0.257812 L 3.761719 -2.949219 L 7.042969 -2.949219 L 7.558594 -0.257812 C 7.597656 -0.09375 7.691406 0 7.855469 0 Z M 6.582031 -5.089844 L 4.222656 -5.089844 L 5.402344 -11.523438 Z M 6.582031 -5.089844 "/></g></g></g><g fill="#2f2e41" fill-opacity="1"><g transform="translate(218.008092, 332.885792)"><g><path d="M 8.628906 -14.753906 C 8.410156 -14.753906 8.28125 -14.640625 8.222656 -14.421875 L 6.175781 -5.238281 L 4.128906 -14.421875 C 4.074219 -14.640625 3.945312 -14.753906 3.726562 -14.753906 L 1.289062 -14.753906 C 1.050781 -14.753906 0.921875 -14.621094 0.921875 -14.382812 L 0.921875 -0.367188 C 0.921875 -0.128906 1.050781 0 1.289062 0 L 2.988281 0 C 3.226562 0 3.355469 -0.128906 3.355469 -0.367188 L 3.355469 -8.667969 L 3.484375 -8.667969 L 5.3125 -0.332031 C 5.367188 -0.109375 5.496094 0 5.714844 0 L 6.621094 0 C 6.839844 0 6.96875 -0.109375 7.027344 -0.332031 L 8.851562 -8.667969 L 8.980469 -8.667969 L 8.980469 -0.367188 C 8.980469 -0.128906 9.109375 0 9.347656 0 L 11.0625 0 C 11.304688 0 11.433594 -0.128906 11.433594 -0.367188 L 11.433594 -14.382812 C 11.433594 -14.621094 11.304688 -14.753906 11.0625 -14.753906 Z M 8.628906 -14.753906 "/></g></g></g><g fill="#2f2e41" fill-opacity="1"><g transform="translate(231.281544, 332.885792)"><g/></g></g><g fill="#2f2e41" fill-opacity="1"><g transform="translate(236.812504, 332.885792)"><g><path d="M 3.578125 -14.753906 C 1.863281 -14.753906 0.921875 -13.828125 0.921875 -12.097656 L 0.921875 -7.746094 C 0.921875 -7.394531 1.089844 -7.171875 1.417969 -7.0625 L 5.789062 -5.625 L 5.789062 -3.171875 C 5.789062 -2.671875 5.53125 -2.433594 5.050781 -2.433594 L 4.167969 -2.433594 C 3.707031 -2.433594 3.429688 -2.671875 3.429688 -3.171875 L 3.429688 -4.589844 C 3.429688 -4.792969 3.335938 -4.886719 3.136719 -4.886719 L 1.21875 -4.886719 C 1.03125 -4.886719 0.921875 -4.792969 0.921875 -4.589844 L 0.921875 -2.65625 C 0.921875 -0.921875 1.863281 0 3.578125 0 L 5.644531 0 C 7.375 0 8.296875 -0.921875 8.296875 -2.65625 L 8.296875 -6.914062 C 8.296875 -7.265625 8.132812 -7.46875 7.820312 -7.597656 L 3.429688 -9.035156 L 3.429688 -11.582031 C 3.429688 -12.058594 3.707031 -12.316406 4.167969 -12.316406 L 5.050781 -12.316406 C 5.550781 -12.316406 5.789062 -12.058594 5.789062 -11.582031 L 5.789062 -10.140625 C 5.789062 -9.957031 5.902344 -9.847656 6.085938 -9.847656 L 8.003906 -9.847656 C 8.207031 -9.847656 8.296875 -9.957031 8.296875 -10.140625 L 8.296875 -12.097656 C 8.296875 -13.828125 7.375 -14.753906 5.644531 -14.753906 Z M 3.578125 -14.753906 "/></g></g></g><g fill="#2f2e41" fill-opacity="1"><g transform="translate(246.952089, 332.885792)"><g><path d="M 0.921875 -0.296875 C 0.921875 -0.109375 1.03125 0 1.21875 0 L 3.136719 0 C 3.335938 0 3.429688 -0.109375 3.429688 -0.296875 L 3.429688 -4.941406 L 5.644531 -4.941406 C 7.375 -4.941406 8.296875 -5.882812 8.296875 -7.597656 L 8.296875 -12.097656 C 8.296875 -13.828125 7.375 -14.753906 5.644531 -14.753906 L 1.21875 -14.753906 C 1.03125 -14.753906 0.921875 -14.640625 0.921875 -14.457031 Z M 3.429688 -7.375 L 3.429688 -12.316406 L 5.050781 -12.316406 C 5.550781 -12.316406 5.789062 -12.058594 5.789062 -11.582031 L 5.789062 -8.113281 C 5.789062 -7.652344 5.550781 -7.375 5.050781 -7.375 Z M 3.429688 -7.375 "/></g></g></g><g fill="#2f2e41" fill-opacity="1"><g transform="translate(257.091674, 332.885792)"><g><path d="M 9.808594 0 C 10.03125 0 10.105469 -0.109375 10.066406 -0.3125 L 7.007812 -14.492188 C 6.96875 -14.679688 6.859375 -14.753906 6.695312 -14.753906 L 4.128906 -14.753906 C 3.964844 -14.753906 3.855469 -14.679688 3.816406 -14.492188 L 0.757812 -0.3125 C 0.699219 -0.109375 0.792969 0 0.996094 0 L 2.96875 0 C 3.136719 0 3.226562 -0.09375 3.265625 -0.257812 L 3.761719 -2.949219 L 7.042969 -2.949219 L 7.558594 -0.257812 C 7.597656 -0.09375 7.691406 0 7.855469 0 Z M 6.582031 -5.089844 L 4.222656 -5.089844 L 5.402344 -11.523438 Z M 6.582031 -5.089844 "/></g></g></g><g fill="#2f2e41" fill-opacity="1"><g transform="translate(268.816634, 332.885792)"><g><path d="M 8.316406 -12.097656 C 8.316406 -13.828125 7.375 -14.753906 5.660156 -14.753906 L 3.597656 -14.753906 C 1.863281 -14.753906 0.921875 -13.828125 0.921875 -12.097656 L 0.921875 -2.65625 C 0.921875 -0.921875 1.863281 0 3.597656 0 L 5.660156 0 C 7.375 0 8.316406 -0.921875 8.316406 -2.65625 L 8.316406 -4.648438 C 8.316406 -4.832031 8.207031 -4.941406 8.019531 -4.941406 L 6.175781 -4.941406 C 5.972656 -4.941406 5.882812 -4.832031 5.882812 -4.648438 L 5.882812 -3.171875 C 5.882812 -2.671875 5.625 -2.433594 5.144531 -2.433594 L 4.1875 -2.433594 C 3.707031 -2.433594 3.449219 -2.671875 3.449219 -3.171875 L 3.449219 -11.582031 C 3.449219 -12.058594 3.6875 -12.316406 4.1875 -12.316406 L 5.144531 -12.316406 C 5.625 -12.316406 5.882812 -12.058594 5.882812 -11.582031 L 5.882812 -10.105469 C 5.882812 -9.921875 5.972656 -9.808594 6.175781 -9.808594 L 8.019531 -9.808594 C 8.207031 -9.808594 8.316406 -9.921875 8.316406 -10.105469 Z M 8.316406 -12.097656 "/></g></g></g><g fill="#2f2e41" fill-opacity="1"><g transform="translate(278.974665, 332.885792)"><g><path d="M 8.28125 -14.457031 C 8.28125 -14.640625 8.207031 -14.753906 7.984375 -14.753906 L 1.199219 -14.753906 C 1.03125 -14.753906 0.921875 -14.640625 0.921875 -14.457031 L 0.921875 -0.296875 C 0.921875 -0.109375 1.03125 0 1.199219 0 L 7.984375 0 C 8.207031 0 8.28125 -0.109375 8.28125 -0.296875 L 8.28125 -2.140625 C 8.28125 -2.34375 8.207031 -2.433594 7.984375 -2.433594 L 3.375 -2.433594 L 3.375 -6.160156 L 6.898438 -6.160156 C 7.082031 -6.160156 7.191406 -6.269531 7.191406 -6.472656 L 7.191406 -8.296875 C 7.191406 -8.5 7.082031 -8.613281 6.898438 -8.613281 L 3.375 -8.613281 L 3.375 -12.300781 L 7.984375 -12.300781 C 8.207031 -12.300781 8.28125 -12.429688 8.28125 -12.613281 Z M 8.28125 -14.457031 "/></g></g></g></svg>