<svg xmlns="http://www.w3.org/2000/svg" xmlns:xlink="http://www.w3.org/1999/xlink" width="500" zoomAndPan="magnify" viewBox="0 0 375 374.999991" height="500" preserveAspectRatio="xMidYMid meet" version="1.0"><defs><clipPath id="2c7a46c441"><path d="M 198 125 L 328.757812 125 L 328.757812 250 L 198 250 Z M 198 125 " clip-rule="nonzero"/></clipPath><clipPath id="5985e2471a"><path d="M 125 46.007812 L 250 46.007812 L 250 328.757812 L 125 328.757812 Z M 125 46.007812 " clip-rule="nonzero"/></clipPath><clipPath id="7b8f2fa8e7"><path d="M 46.007812 125 L 177 125 L 177 250 L 46.007812 250 Z M 46.007812 125 " clip-rule="nonzero"/></clipPath></defs><rect x="-37.5" width="450" fill="#ffffff" y="-37.499999" height="449.999989" fill-opacity="1"/><rect x="-37.5" width="450" fill="#ffffff" y="-37.499999" height="449.999989" fill-opacity="1"/><g clip-path="url(#2c7a46c441)"><path fill="#2f2e41" d="M 198.289062 249.828125 L 222.480469 249.828125 L 222.480469 231.9375 L 216.175781 231.9375 C 216.175781 215.078125 216.175781 198.222656 216.175781 181.363281 L 198.289062 181.363281 C 198.289062 204.183594 198.289062 227.003906 198.289062 249.828125 Z M 306.230469 187.53125 L 271.207031 231.9375 L 265.246094 231.9375 L 265.246094 249.828125 L 279.84375 249.828125 L 328.980469 187.53125 L 279.84375 125.234375 L 198.289062 125.234375 L 198.289062 154.222656 L 216.175781 154.222656 L 216.175781 143.121094 L 271.207031 143.121094 Z M 306.230469 187.53125 " fill-opacity="1" fill-rule="evenodd"/></g><g clip-path="url(#5985e2471a)"><path fill="#ffb163" d="M 154.222656 176.703125 L 154.222656 158.816406 L 143.121094 158.816406 L 143.121094 103.78125 L 187.53125 68.761719 L 231.9375 103.78125 L 231.9375 109.746094 L 249.828125 109.746094 L 249.828125 95.148438 L 187.53125 46.007812 L 125.234375 95.148438 L 125.234375 176.703125 Z M 220.835938 198.289062 L 220.835938 216.175781 L 231.9375 216.175781 L 231.9375 271.207031 L 187.53125 306.230469 L 143.121094 271.207031 L 143.121094 265.246094 L 125.234375 265.246094 L 125.234375 279.84375 L 187.53125 328.980469 L 249.828125 279.84375 L 249.828125 198.289062 Z M 125.234375 198.289062 L 125.234375 222.480469 L 143.121094 222.480469 L 143.121094 216.175781 C 159.980469 216.175781 176.839844 216.175781 193.699219 216.175781 L 193.699219 198.289062 C 170.875 198.289062 148.054688 198.289062 125.234375 198.289062 Z M 249.894531 176.703125 L 249.894531 152.507812 L 232.007812 152.507812 L 232.007812 158.816406 C 215.148438 158.816406 198.289062 158.816406 181.429688 158.816406 L 181.429688 176.703125 C 204.25 176.703125 227.074219 176.703125 249.894531 176.703125 Z M 249.894531 176.703125 " fill-opacity="1" fill-rule="evenodd"/></g><g clip-path="url(#7b8f2fa8e7)"><path fill="#2f2e41" d="M 68.761719 187.460938 L 103.78125 143.050781 L 109.746094 143.050781 L 109.746094 125.164062 L 95.148438 125.164062 L 46.007812 187.460938 L 95.148438 249.757812 L 176.703125 249.757812 L 176.703125 220.769531 L 158.816406 220.769531 L 158.816406 231.871094 L 103.78125 231.871094 Z M 158.816406 193.628906 L 176.703125 193.628906 C 176.703125 170.808594 176.703125 147.984375 176.703125 125.164062 L 152.507812 125.164062 L 152.507812 143.050781 L 158.816406 143.050781 C 158.816406 159.910156 158.816406 176.769531 158.816406 193.628906 Z M 158.816406 193.628906 " fill-opacity="1" fill-rule="evenodd"/></g><path fill="#b6b6b7" d="M 285.328125 177.59375 L 285.328125 186.160156 L 276.757812 186.160156 L 276.757812 177.59375 Z M 177.59375 89.664062 L 186.160156 89.664062 L 186.160156 98.230469 L 177.59375 98.230469 Z M 177.59375 265.519531 L 186.160156 265.519531 L 186.160156 274.085938 L 177.59375 274.085938 Z M 188.761719 265.519531 L 197.328125 265.519531 L 197.328125 274.085938 L 188.761719 274.085938 Z M 197.328125 276.691406 L 197.328125 285.257812 L 188.761719 285.257812 L 188.761719 276.691406 Z M 186.160156 285.257812 L 177.59375 285.257812 L 177.59375 276.691406 L 186.160156 276.691406 Z M 188.761719 89.597656 L 197.328125 89.597656 L 197.328125 98.164062 L 188.761719 98.164062 Z M 197.328125 100.765625 L 197.328125 109.332031 L 188.761719 109.332031 L 188.761719 100.765625 Z M 186.160156 109.332031 L 177.59375 109.332031 L 177.59375 100.765625 L 186.160156 100.765625 Z M 109.402344 177.457031 L 109.402344 186.023438 L 100.835938 186.023438 L 100.835938 177.457031 Z M 109.402344 188.625 L 109.402344 197.191406 L 100.835938 197.191406 L 100.835938 188.625 Z M 98.230469 197.191406 L 89.664062 197.191406 L 89.664062 188.625 L 98.230469 188.625 Z M 89.664062 186.023438 L 89.664062 177.457031 L 98.230469 177.457031 L 98.230469 186.023438 Z M 285.328125 188.625 L 285.328125 197.191406 L 276.757812 197.191406 L 276.757812 188.625 Z M 274.15625 197.191406 L 265.589844 197.191406 L 265.589844 188.625 L 274.15625 188.625 Z M 265.589844 186.023438 L 265.589844 177.457031 L 274.15625 177.457031 L 274.15625 186.023438 Z M 265.589844 186.023438 " fill-opacity="1" fill-rule="evenodd"/></svg>