<svg xmlns="http://www.w3.org/2000/svg" xmlns:xlink="http://www.w3.org/1999/xlink" width="1080" zoomAndPan="magnify" viewBox="0 0 810 809.999993" height="1080" preserveAspectRatio="xMidYMid meet" version="1.0"><defs><g/><clipPath id="e9eae96171"><path d="M 418 227 L 586.375 227 L 586.375 388 L 418 388 Z M 418 227 " clip-rule="nonzero"/></clipPath><clipPath id="01669e285c"><path d="M 325 125.902344 L 486 125.902344 L 486 488.902344 L 325 488.902344 Z M 325 125.902344 " clip-rule="nonzero"/></clipPath><clipPath id="885fd0c98c"><path d="M 223.375 227 L 392 227 L 392 388 L 223.375 388 Z M 223.375 227 " clip-rule="nonzero"/></clipPath></defs><g clip-path="url(#e9eae96171)"><path fill="#f4f6fc" d="M 418.855469 387.535156 L 449.910156 387.535156 L 449.910156 364.574219 L 441.816406 364.574219 C 441.816406 342.933594 441.816406 321.292969 441.816406 299.652344 L 418.855469 299.652344 C 418.855469 328.945312 418.855469 358.242188 418.855469 387.535156 Z M 557.414062 307.566406 L 512.457031 364.574219 L 504.804688 364.574219 L 504.804688 387.535156 L 523.542969 387.535156 L 586.621094 307.566406 L 523.542969 227.597656 L 418.855469 227.597656 L 418.855469 264.8125 L 441.816406 264.8125 L 441.816406 250.5625 L 512.457031 250.5625 Z M 557.414062 307.566406 " fill-opacity="1" fill-rule="evenodd"/></g><g clip-path="url(#01669e285c)"><path fill="#feb063" d="M 362.285156 293.667969 L 362.285156 270.707031 L 348.035156 270.707031 L 348.035156 200.0625 L 405.042969 155.109375 L 462.050781 200.0625 L 462.050781 207.71875 L 485.011719 207.71875 L 485.011719 188.980469 L 405.042969 125.902344 L 325.074219 188.980469 L 325.074219 293.667969 Z M 447.796875 321.378906 L 447.796875 344.339844 L 462.050781 344.339844 L 462.050781 414.984375 L 405.042969 459.941406 L 348.035156 414.984375 L 348.035156 407.332031 L 325.074219 407.332031 L 325.074219 426.070312 L 405.042969 489.148438 L 485.011719 426.070312 L 485.011719 321.378906 Z M 325.074219 321.378906 L 325.074219 352.433594 L 348.035156 352.433594 L 348.035156 344.339844 C 369.675781 344.339844 391.316406 344.339844 412.960938 344.339844 L 412.960938 321.378906 C 383.664062 321.378906 354.367188 321.378906 325.074219 321.378906 Z M 485.097656 293.667969 L 485.097656 262.613281 L 462.136719 262.613281 L 462.136719 270.707031 C 440.496094 270.707031 418.855469 270.707031 397.210938 270.707031 L 397.210938 293.667969 C 426.507812 293.667969 455.804688 293.667969 485.097656 293.667969 Z M 485.097656 293.667969 " fill-opacity="1" fill-rule="evenodd"/></g><g clip-path="url(#885fd0c98c)"><path fill="#f4f6fc" d="M 252.582031 307.480469 L 297.535156 250.472656 L 305.191406 250.472656 L 305.191406 227.511719 L 286.453125 227.511719 L 223.375 307.480469 L 286.453125 387.449219 L 391.140625 387.449219 L 391.140625 350.234375 L 368.179688 350.234375 L 368.179688 364.488281 L 297.535156 364.488281 Z M 368.179688 315.398438 L 391.140625 315.398438 C 391.140625 286.101562 391.140625 256.808594 391.140625 227.511719 L 360.085938 227.511719 L 360.085938 250.472656 L 368.179688 250.472656 C 368.179688 272.113281 368.179688 293.757812 368.179688 315.398438 Z M 368.179688 315.398438 " fill-opacity="1" fill-rule="evenodd"/></g><path fill="#b6b6b7" d="M 530.582031 294.8125 L 530.582031 305.808594 L 519.585938 305.808594 L 519.585938 294.8125 Z M 392.285156 181.941406 L 403.28125 181.941406 L 403.28125 192.9375 L 392.285156 192.9375 Z M 392.285156 407.683594 L 403.28125 407.683594 L 403.28125 418.679688 L 392.285156 418.679688 Z M 406.625 407.683594 L 417.621094 407.683594 L 417.621094 418.679688 L 406.625 418.679688 Z M 417.621094 422.023438 L 417.621094 433.019531 L 406.625 433.019531 L 406.625 422.023438 Z M 403.28125 433.019531 L 392.285156 433.019531 L 392.285156 422.023438 L 403.28125 422.023438 Z M 406.625 181.851562 L 417.621094 181.851562 L 417.621094 192.847656 L 406.625 192.847656 Z M 417.621094 196.191406 L 417.621094 207.1875 L 406.625 207.1875 L 406.625 196.191406 Z M 403.28125 207.1875 L 392.285156 207.1875 L 392.285156 196.191406 L 403.28125 196.191406 Z M 304.75 294.636719 L 304.75 305.632812 L 293.753906 305.632812 L 293.753906 294.636719 Z M 304.75 308.976562 L 304.75 319.972656 L 293.753906 319.972656 L 293.753906 308.976562 Z M 290.410156 319.972656 L 279.414062 319.972656 L 279.414062 308.976562 L 290.410156 308.976562 Z M 279.414062 305.632812 L 279.414062 294.636719 L 290.410156 294.636719 L 290.410156 305.632812 Z M 530.582031 308.976562 L 530.582031 319.972656 L 519.585938 319.972656 L 519.585938 308.976562 Z M 516.242188 319.972656 L 505.246094 319.972656 L 505.246094 308.976562 L 516.242188 308.976562 Z M 505.246094 305.632812 L 505.246094 294.636719 L 516.242188 294.636719 L 516.242188 305.632812 Z M 505.246094 305.632812 " fill-opacity="1" fill-rule="evenodd"/><g fill="#feb063" fill-opacity="1"><g transform="translate(143.237469, 600.927392)"><g><path d="M 33.265625 -74.53125 C 32.234375 -74.53125 31.765625 -73.984375 31.765625 -73.046875 L 31.765625 -33.734375 L 31.21875 -33.734375 L 17.046875 -73.328125 C 16.765625 -74.171875 16.21875 -74.53125 15.375 -74.53125 L 6.15625 -74.53125 C 5.21875 -74.53125 4.65625 -73.984375 4.65625 -73.046875 L 4.65625 -1.484375 C 4.65625 -0.5625 5.21875 0 6.15625 0 L 15.84375 0 C 16.859375 0 17.328125 -0.5625 17.328125 -1.484375 L 17.328125 -41 L 17.796875 -41 L 32.046875 -1.21875 C 32.328125 -0.375 32.890625 0 33.734375 0 L 42.953125 0 C 43.890625 0 44.4375 -0.5625 44.4375 -1.484375 L 44.4375 -73.046875 C 44.4375 -73.984375 43.890625 -74.53125 42.953125 -74.53125 Z M 33.265625 -74.53125 "/></g></g></g><g fill="#feb063" fill-opacity="1"><g transform="translate(192.325911, 600.927392)"><g><path d="M 41.828125 -73.046875 C 41.828125 -73.984375 41.46875 -74.53125 40.34375 -74.53125 L 6.0625 -74.53125 C 5.21875 -74.53125 4.65625 -73.984375 4.65625 -73.046875 L 4.65625 -1.484375 C 4.65625 -0.5625 5.21875 0 6.0625 0 L 40.34375 0 C 41.46875 0 41.828125 -0.5625 41.828125 -1.484375 L 41.828125 -10.8125 C 41.828125 -11.828125 41.46875 -12.296875 40.34375 -12.296875 L 17.046875 -12.296875 L 17.046875 -31.125 L 34.84375 -31.125 C 35.78125 -31.125 36.34375 -31.671875 36.34375 -32.703125 L 36.34375 -41.921875 C 36.34375 -42.953125 35.78125 -43.515625 34.84375 -43.515625 L 17.046875 -43.515625 L 17.046875 -62.140625 L 40.34375 -62.140625 C 41.46875 -62.140625 41.828125 -62.796875 41.828125 -63.734375 Z M 41.828125 -73.046875 "/></g></g></g><g fill="#feb063" fill-opacity="1"><g transform="translate(238.806227, 600.927392)"><g><path d="M 55.625 -74.53125 C 54.5 -74.53125 53.765625 -73.890625 53.671875 -72.765625 L 49.84375 -29.15625 L 49.375 -29.15625 L 40.25 -72.859375 C 39.96875 -73.984375 39.3125 -74.53125 38.203125 -74.53125 L 32.609375 -74.53125 C 31.484375 -74.53125 30.84375 -73.984375 30.5625 -72.859375 L 21.34375 -29.15625 L 20.875 -29.15625 L 17.234375 -72.765625 C 17.140625 -73.890625 16.390625 -74.53125 15.28125 -74.53125 L 6.421875 -74.53125 C 5.21875 -74.53125 4.5625 -73.796875 4.65625 -72.578125 L 12.296875 -1.765625 C 12.390625 -0.5625 13.046875 0 14.25 0 L 23.578125 0 C 24.6875 0 25.34375 -0.5625 25.625 -1.578125 L 35.40625 -43.796875 L 45.09375 -1.671875 C 45.375 -0.5625 46.03125 0 47.140625 0 L 56.28125 0 C 57.484375 0 58.140625 -0.5625 58.234375 -1.765625 L 66.25 -72.578125 C 66.34375 -73.796875 65.6875 -74.53125 64.46875 -74.53125 Z M 55.625 -74.53125 "/></g></g></g><g fill="#feb063" fill-opacity="1"><g transform="translate(309.691058, 600.927392)"><g/></g></g><g fill="#feb063" fill-opacity="1"><g transform="translate(332.977805, 600.927392)"><g><path d="M 29.25 -16.03125 C 29.25 -13.609375 27.953125 -12.296875 25.53125 -12.296875 L 20.6875 -12.296875 C 18.265625 -12.296875 16.953125 -13.609375 16.953125 -16.03125 L 16.953125 -23.109375 C 16.953125 -24.03125 16.390625 -24.59375 15.46875 -24.59375 L 6.15625 -24.59375 C 5.125 -24.59375 4.65625 -24.03125 4.65625 -23.109375 L 4.65625 -13.421875 C 4.65625 -4.65625 9.3125 0 18.078125 0 L 28.515625 0 C 37.171875 0 41.921875 -4.65625 41.921875 -13.421875 L 41.921875 -73.046875 C 41.921875 -73.984375 41.375 -74.53125 40.4375 -74.53125 L 30.75 -74.53125 C 29.71875 -74.53125 29.25 -73.984375 29.25 -73.046875 Z M 29.25 -16.03125 "/></g></g></g><g fill="#feb063" fill-opacity="1"><g transform="translate(379.551275, 600.927392)"><g><path d="M 4.65625 -13.421875 C 4.65625 -4.65625 9.3125 0 18.078125 0 L 28.515625 0 C 37.265625 0 41.921875 -4.65625 41.921875 -13.421875 L 41.921875 -61.125 C 41.921875 -69.875 37.265625 -74.53125 28.515625 -74.53125 L 18.078125 -74.53125 C 9.3125 -74.53125 4.65625 -69.875 4.65625 -61.125 Z M 20.78125 -12.015625 C 18.359375 -12.015625 17.046875 -13.234375 17.046875 -15.75 L 17.046875 -58.796875 C 17.046875 -61.21875 18.359375 -62.515625 20.78125 -62.515625 L 26.1875 -62.515625 C 28.609375 -62.515625 29.90625 -61.21875 29.90625 -58.796875 L 29.90625 -15.75 C 29.90625 -13.234375 28.609375 -12.015625 26.1875 -12.015625 Z M 20.78125 -12.015625 "/></g></g></g><g fill="#feb063" fill-opacity="1"><g transform="translate(426.124745, 600.927392)"><g><path d="M 31.484375 -74.53125 C 30.46875 -74.53125 29.625 -73.703125 29.625 -72.671875 L 29.625 -16.03125 C 29.625 -13.515625 28.328125 -12.296875 25.90625 -12.296875 L 21.0625 -12.296875 C 18.640625 -12.296875 17.328125 -13.515625 17.328125 -16.03125 L 17.328125 -72.671875 C 17.328125 -73.703125 16.484375 -74.53125 15.46875 -74.53125 L 6.515625 -74.53125 C 5.5 -74.53125 4.65625 -73.703125 4.65625 -72.671875 L 4.65625 -13.421875 C 4.65625 -4.65625 9.3125 0 18.078125 0 L 28.515625 0 C 37.265625 0 41.921875 -4.65625 41.921875 -13.421875 L 41.921875 -72.671875 C 41.921875 -73.703125 41.09375 -74.53125 40.0625 -74.53125 Z M 31.484375 -74.53125 "/></g></g></g><g fill="#feb063" fill-opacity="1"><g transform="translate(472.698215, 600.927392)"><g><path d="M 42.953125 -61.125 C 42.953125 -69.875 38.296875 -74.53125 29.53125 -74.53125 L 6.15625 -74.53125 C 5.21875 -74.53125 4.65625 -73.984375 4.65625 -73.046875 L 4.65625 -1.484375 C 4.65625 -0.5625 5.21875 0 6.15625 0 L 15.84375 0 C 16.765625 0 17.328125 -0.5625 17.328125 -1.484375 L 17.328125 -24.96875 L 23.765625 -24.96875 L 30 -1.296875 C 30.1875 -0.46875 30.65625 0 31.578125 0 L 41.28125 0 C 42.296875 0 42.859375 -0.5625 42.578125 -1.671875 L 36.15625 -26.09375 C 40.625 -28.046875 42.953125 -32.140625 42.953125 -38.390625 Z M 17.328125 -37.265625 L 17.328125 -62.234375 L 26.546875 -62.234375 C 28.96875 -62.234375 30.28125 -60.9375 30.28125 -58.515625 L 30.28125 -41 C 30.28125 -38.578125 28.96875 -37.265625 26.546875 -37.265625 Z M 17.328125 -37.265625 "/></g></g></g><g fill="#feb063" fill-opacity="1"><g transform="translate(520.296299, 600.927392)"><g><path d="M 33.265625 -74.53125 C 32.234375 -74.53125 31.765625 -73.984375 31.765625 -73.046875 L 31.765625 -33.734375 L 31.21875 -33.734375 L 17.046875 -73.328125 C 16.765625 -74.171875 16.21875 -74.53125 15.375 -74.53125 L 6.15625 -74.53125 C 5.21875 -74.53125 4.65625 -73.984375 4.65625 -73.046875 L 4.65625 -1.484375 C 4.65625 -0.5625 5.21875 0 6.15625 0 L 15.84375 0 C 16.859375 0 17.328125 -0.5625 17.328125 -1.484375 L 17.328125 -41 L 17.796875 -41 L 32.046875 -1.21875 C 32.328125 -0.375 32.890625 0 33.734375 0 L 42.953125 0 C 43.890625 0 44.4375 -0.5625 44.4375 -1.484375 L 44.4375 -73.046875 C 44.4375 -73.984375 43.890625 -74.53125 42.953125 -74.53125 Z M 33.265625 -74.53125 "/></g></g></g><g fill="#feb063" fill-opacity="1"><g transform="translate(569.384766, 600.927392)"><g><path d="M 41.828125 -73.046875 C 41.828125 -73.984375 41.46875 -74.53125 40.34375 -74.53125 L 6.0625 -74.53125 C 5.21875 -74.53125 4.65625 -73.984375 4.65625 -73.046875 L 4.65625 -1.484375 C 4.65625 -0.5625 5.21875 0 6.0625 0 L 40.34375 0 C 41.46875 0 41.828125 -0.5625 41.828125 -1.484375 L 41.828125 -10.8125 C 41.828125 -11.828125 41.46875 -12.296875 40.34375 -12.296875 L 17.046875 -12.296875 L 17.046875 -31.125 L 34.84375 -31.125 C 35.78125 -31.125 36.34375 -31.671875 36.34375 -32.703125 L 36.34375 -41.921875 C 36.34375 -42.953125 35.78125 -43.515625 34.84375 -43.515625 L 17.046875 -43.515625 L 17.046875 -62.140625 L 40.34375 -62.140625 C 41.46875 -62.140625 41.828125 -62.796875 41.828125 -63.734375 Z M 41.828125 -73.046875 "/></g></g></g><g fill="#feb063" fill-opacity="1"><g transform="translate(615.865081, 600.927392)"><g><path d="M 38.015625 -74.53125 C 36.890625 -74.53125 36.25 -74.078125 35.875 -73.046875 L 25.4375 -46.3125 L 15 -73.046875 C 14.625 -74.078125 13.96875 -74.53125 12.859375 -74.53125 L 3.546875 -74.53125 C 2.140625 -74.53125 1.484375 -73.703125 2.046875 -72.390625 L 19.09375 -30.9375 L 19.09375 -1.859375 C 19.09375 -0.65625 19.75 0 20.96875 0 L 29.90625 0 C 31.125 0 31.765625 -0.65625 31.765625 -1.859375 L 31.765625 -30.9375 L 48.828125 -72.390625 C 49.375 -73.703125 48.734375 -74.53125 47.328125 -74.53125 Z M 38.015625 -74.53125 "/></g></g></g><g fill="#f4f6fc" fill-opacity="1"><g transform="translate(217.782373, 646.157117)"><g><path d="M 15.4375 -26.890625 C 15.4375 -27.234375 15.234375 -27.4375 14.890625 -27.4375 L 2.265625 -27.4375 C 1.890625 -27.4375 1.71875 -27.234375 1.71875 -26.890625 L 1.71875 -0.546875 C 1.71875 -0.203125 1.890625 0 2.265625 0 L 5.828125 0 C 6.171875 0 6.375 -0.203125 6.375 -0.546875 L 6.375 -11.484375 L 12.828125 -11.484375 C 13.171875 -11.484375 13.375 -11.65625 13.375 -12.03125 L 13.375 -15.46875 C 13.375 -15.8125 13.171875 -16.015625 12.828125 -16.015625 L 6.375 -16.015625 L 6.375 -22.90625 L 14.890625 -22.90625 C 15.234375 -22.90625 15.4375 -23.109375 15.4375 -23.453125 Z M 15.4375 -26.890625 "/></g></g></g><g fill="#f4f6fc" fill-opacity="1"><g transform="translate(236.636759, 646.157117)"><g><path d="M 2.265625 -27.4375 C 1.890625 -27.4375 1.71875 -27.234375 1.71875 -26.890625 L 1.71875 -0.546875 C 1.71875 -0.203125 1.890625 0 2.265625 0 L 5.828125 0 C 6.171875 0 6.375 -0.203125 6.375 -0.546875 L 6.375 -26.890625 C 6.375 -27.234375 6.171875 -27.4375 5.828125 -27.4375 Z M 2.265625 -27.4375 "/></g></g></g><g fill="#f4f6fc" fill-opacity="1"><g transform="translate(246.441399, 646.157117)"><g><path d="M 12.25 -27.4375 C 11.859375 -27.4375 11.6875 -27.234375 11.6875 -26.890625 L 11.6875 -12.421875 L 11.484375 -12.421875 L 6.28125 -26.984375 C 6.171875 -27.296875 5.96875 -27.4375 5.65625 -27.4375 L 2.265625 -27.4375 C 1.921875 -27.4375 1.71875 -27.234375 1.71875 -26.890625 L 1.71875 -0.546875 C 1.71875 -0.203125 1.921875 0 2.265625 0 L 5.828125 0 C 6.203125 0 6.375 -0.203125 6.375 -0.546875 L 6.375 -15.09375 L 6.546875 -15.09375 L 11.796875 -0.453125 C 11.90625 -0.140625 12.109375 0 12.421875 0 L 15.8125 0 C 16.15625 0 16.359375 -0.203125 16.359375 -0.546875 L 16.359375 -26.890625 C 16.359375 -27.234375 16.15625 -27.4375 15.8125 -27.4375 Z M 12.25 -27.4375 "/></g></g></g><g fill="#f4f6fc" fill-opacity="1"><g transform="translate(266.221331, 646.157117)"><g><path d="M 1.71875 -0.546875 C 1.71875 -0.171875 1.890625 0 2.265625 0 L 10.5 0 C 13.71875 0 15.4375 -1.71875 15.4375 -4.9375 L 15.4375 -22.46875 C 15.4375 -25.6875 13.71875 -27.4375 10.5 -27.4375 L 2.265625 -27.4375 C 1.890625 -27.4375 1.71875 -27.234375 1.71875 -26.890625 Z M 6.375 -4.53125 L 6.375 -22.90625 L 9.53125 -22.90625 C 10.421875 -22.90625 10.90625 -22.4375 10.90625 -21.5 L 10.90625 -5.90625 C 10.90625 -4.96875 10.421875 -4.53125 9.53125 -4.53125 Z M 6.375 -4.53125 "/></g></g></g><g fill="#f4f6fc" fill-opacity="1"><g transform="translate(285.075717, 646.157117)"><g/></g></g><g fill="#f4f6fc" fill-opacity="1"><g transform="translate(295.360246, 646.157117)"><g><path d="M 14 -27.4375 C 13.578125 -27.4375 13.34375 -27.265625 13.203125 -26.890625 L 9.359375 -17.046875 L 5.515625 -26.890625 C 5.390625 -27.265625 5.140625 -27.4375 4.734375 -27.4375 L 1.296875 -27.4375 C 0.78125 -27.4375 0.546875 -27.125 0.75 -26.65625 L 7.03125 -11.390625 L 7.03125 -0.6875 C 7.03125 -0.234375 7.265625 0 7.71875 0 L 11.015625 0 C 11.453125 0 11.6875 -0.234375 11.6875 -0.6875 L 11.6875 -11.390625 L 17.96875 -26.65625 C 18.171875 -27.125 17.9375 -27.4375 17.421875 -27.4375 Z M 14 -27.4375 "/></g></g></g><g fill="#f4f6fc" fill-opacity="1"><g transform="translate(315.791473, 646.157117)"><g><path d="M 1.71875 -4.9375 C 1.71875 -1.71875 3.4375 0 6.65625 0 L 10.5 0 C 13.71875 0 15.4375 -1.71875 15.4375 -4.9375 L 15.4375 -22.5 C 15.4375 -25.71875 13.71875 -27.4375 10.5 -27.4375 L 6.65625 -27.4375 C 3.4375 -27.4375 1.71875 -25.71875 1.71875 -22.5 Z M 7.640625 -4.421875 C 6.75 -4.421875 6.28125 -4.875 6.28125 -5.796875 L 6.28125 -21.640625 C 6.28125 -22.53125 6.75 -23.015625 7.640625 -23.015625 L 9.640625 -23.015625 C 10.53125 -23.015625 11.015625 -22.53125 11.015625 -21.640625 L 11.015625 -5.796875 C 11.015625 -4.875 10.53125 -4.421875 9.640625 -4.421875 Z M 7.640625 -4.421875 "/></g></g></g><g fill="#f4f6fc" fill-opacity="1"><g transform="translate(334.645859, 646.157117)"><g><path d="M 11.59375 -27.4375 C 11.21875 -27.4375 10.90625 -27.125 10.90625 -26.75 L 10.90625 -5.90625 C 10.90625 -4.96875 10.421875 -4.53125 9.53125 -4.53125 L 7.75 -4.53125 C 6.859375 -4.53125 6.375 -4.96875 6.375 -5.90625 L 6.375 -26.75 C 6.375 -27.125 6.078125 -27.4375 5.6875 -27.4375 L 2.40625 -27.4375 C 2.03125 -27.4375 1.71875 -27.125 1.71875 -26.75 L 1.71875 -4.9375 C 1.71875 -1.71875 3.4375 0 6.65625 0 L 10.5 0 C 13.71875 0 15.4375 -1.71875 15.4375 -4.9375 L 15.4375 -26.75 C 15.4375 -27.125 15.125 -27.4375 14.75 -27.4375 Z M 11.59375 -27.4375 "/></g></g></g><g fill="#f4f6fc" fill-opacity="1"><g transform="translate(353.500246, 646.157117)"><g><path d="M 15.8125 -22.5 C 15.8125 -25.71875 14.09375 -27.4375 10.875 -27.4375 L 2.265625 -27.4375 C 1.921875 -27.4375 1.71875 -27.234375 1.71875 -26.890625 L 1.71875 -0.546875 C 1.71875 -0.203125 1.921875 0 2.265625 0 L 5.828125 0 C 6.171875 0 6.375 -0.203125 6.375 -0.546875 L 6.375 -9.1875 L 8.75 -9.1875 L 11.046875 -0.484375 C 11.109375 -0.171875 11.28125 0 11.625 0 L 15.1875 0 C 15.578125 0 15.78125 -0.203125 15.671875 -0.625 L 13.3125 -9.609375 C 14.953125 -10.328125 15.8125 -11.828125 15.8125 -14.125 Z M 6.375 -13.71875 L 6.375 -22.90625 L 9.78125 -22.90625 C 10.671875 -22.90625 11.140625 -22.4375 11.140625 -21.53125 L 11.140625 -15.09375 C 11.140625 -14.203125 10.671875 -13.71875 9.78125 -13.71875 Z M 6.375 -13.71875 "/></g></g></g><g fill="#f4f6fc" fill-opacity="1"><g transform="translate(372.731701, 646.157117)"><g/></g></g><g fill="#f4f6fc" fill-opacity="1"><g transform="translate(383.01623, 646.157117)"><g><path d="M 1.71875 -0.546875 C 1.71875 -0.171875 1.890625 0 2.265625 0 L 10.5 0 C 13.71875 0 15.4375 -1.71875 15.4375 -4.9375 L 15.4375 -22.46875 C 15.4375 -25.6875 13.71875 -27.4375 10.5 -27.4375 L 2.265625 -27.4375 C 1.890625 -27.4375 1.71875 -27.234375 1.71875 -26.890625 Z M 6.375 -4.53125 L 6.375 -22.90625 L 9.53125 -22.90625 C 10.421875 -22.90625 10.90625 -22.4375 10.90625 -21.5 L 10.90625 -5.90625 C 10.90625 -4.96875 10.421875 -4.53125 9.53125 -4.53125 Z M 6.375 -4.53125 "/></g></g></g><g fill="#f4f6fc" fill-opacity="1"><g transform="translate(401.870616, 646.157117)"><g><path d="M 15.8125 -22.5 C 15.8125 -25.71875 14.09375 -27.4375 10.875 -27.4375 L 2.265625 -27.4375 C 1.921875 -27.4375 1.71875 -27.234375 1.71875 -26.890625 L 1.71875 -0.546875 C 1.71875 -0.203125 1.921875 0 2.265625 0 L 5.828125 0 C 6.171875 0 6.375 -0.203125 6.375 -0.546875 L 6.375 -9.1875 L 8.75 -9.1875 L 11.046875 -0.484375 C 11.109375 -0.171875 11.28125 0 11.625 0 L 15.1875 0 C 15.578125 0 15.78125 -0.203125 15.671875 -0.625 L 13.3125 -9.609375 C 14.953125 -10.328125 15.8125 -11.828125 15.8125 -14.125 Z M 6.375 -13.71875 L 6.375 -22.90625 L 9.78125 -22.90625 C 10.671875 -22.90625 11.140625 -22.4375 11.140625 -21.53125 L 11.140625 -15.09375 C 11.140625 -14.203125 10.671875 -13.71875 9.78125 -13.71875 Z M 6.375 -13.71875 "/></g></g></g><g fill="#f4f6fc" fill-opacity="1"><g transform="translate(421.102072, 646.157117)"><g><path d="M 15.40625 -26.890625 C 15.40625 -27.234375 15.265625 -27.4375 14.84375 -27.4375 L 2.234375 -27.4375 C 1.921875 -27.4375 1.71875 -27.234375 1.71875 -26.890625 L 1.71875 -0.546875 C 1.71875 -0.203125 1.921875 0 2.234375 0 L 14.84375 0 C 15.265625 0 15.40625 -0.203125 15.40625 -0.546875 L 15.40625 -3.984375 C 15.40625 -4.359375 15.265625 -4.53125 14.84375 -4.53125 L 6.28125 -4.53125 L 6.28125 -11.453125 L 12.828125 -11.453125 C 13.171875 -11.453125 13.375 -11.65625 13.375 -12.03125 L 13.375 -15.4375 C 13.375 -15.8125 13.171875 -16.015625 12.828125 -16.015625 L 6.28125 -16.015625 L 6.28125 -22.875 L 14.84375 -22.875 C 15.265625 -22.875 15.40625 -23.109375 15.40625 -23.453125 Z M 15.40625 -26.890625 "/></g></g></g><g fill="#f4f6fc" fill-opacity="1"><g transform="translate(439.922177, 646.157117)"><g><path d="M 18.25 0 C 18.65625 0 18.796875 -0.203125 18.71875 -0.578125 L 13.03125 -26.953125 C 12.96875 -27.296875 12.765625 -27.4375 12.453125 -27.4375 L 7.6875 -27.4375 C 7.375 -27.4375 7.171875 -27.296875 7.09375 -26.953125 L 1.40625 -0.578125 C 1.296875 -0.203125 1.46875 0 1.859375 0 L 5.515625 0 C 5.828125 0 6 -0.171875 6.078125 -0.484375 L 7 -5.484375 L 13.09375 -5.484375 L 14.0625 -0.484375 C 14.125 -0.171875 14.296875 0 14.609375 0 Z M 12.25 -9.46875 L 7.859375 -9.46875 L 10.046875 -21.4375 Z M 12.25 -9.46875 "/></g></g></g><g fill="#f4f6fc" fill-opacity="1"><g transform="translate(461.724582, 646.157117)"><g><path d="M 16.046875 -27.4375 C 15.640625 -27.4375 15.40625 -27.234375 15.296875 -26.8125 L 11.484375 -9.734375 L 7.6875 -26.8125 C 7.578125 -27.234375 7.34375 -27.4375 6.921875 -27.4375 L 2.40625 -27.4375 C 1.953125 -27.4375 1.71875 -27.203125 1.71875 -26.75 L 1.71875 -0.6875 C 1.71875 -0.234375 1.953125 0 2.40625 0 L 5.5625 0 C 6 0 6.234375 -0.234375 6.234375 -0.6875 L 6.234375 -16.125 L 6.484375 -16.125 L 9.875 -0.625 C 9.984375 -0.203125 10.21875 0 10.625 0 L 12.3125 0 C 12.71875 0 12.96875 -0.203125 13.0625 -0.625 L 16.46875 -16.125 L 16.703125 -16.125 L 16.703125 -0.6875 C 16.703125 -0.234375 16.9375 0 17.390625 0 L 20.578125 0 C 21.03125 0 21.265625 -0.234375 21.265625 -0.6875 L 21.265625 -26.75 C 21.265625 -27.203125 21.03125 -27.4375 20.578125 -27.4375 Z M 16.046875 -27.4375 "/></g></g></g><g fill="#f4f6fc" fill-opacity="1"><g transform="translate(486.406469, 646.157117)"><g/></g></g><g fill="#f4f6fc" fill-opacity="1"><g transform="translate(496.690998, 646.157117)"><g><path d="M 6.65625 -27.4375 C 3.46875 -27.4375 1.71875 -25.71875 1.71875 -22.5 L 1.71875 -14.40625 C 1.71875 -13.75 2.03125 -13.34375 2.640625 -13.140625 L 10.765625 -10.453125 L 10.765625 -5.90625 C 10.765625 -4.96875 10.296875 -4.53125 9.390625 -4.53125 L 7.75 -4.53125 C 6.890625 -4.53125 6.375 -4.96875 6.375 -5.90625 L 6.375 -8.546875 C 6.375 -8.921875 6.203125 -9.09375 5.828125 -9.09375 L 2.265625 -9.09375 C 1.921875 -9.09375 1.71875 -8.921875 1.71875 -8.546875 L 1.71875 -4.9375 C 1.71875 -1.71875 3.46875 0 6.65625 0 L 10.5 0 C 13.71875 0 15.4375 -1.71875 15.4375 -4.9375 L 15.4375 -12.859375 C 15.4375 -13.515625 15.125 -13.890625 14.546875 -14.125 L 6.375 -16.8125 L 6.375 -21.53125 C 6.375 -22.4375 6.890625 -22.90625 7.75 -22.90625 L 9.390625 -22.90625 C 10.328125 -22.90625 10.765625 -22.4375 10.765625 -21.53125 L 10.765625 -18.859375 C 10.765625 -18.515625 10.96875 -18.3125 11.3125 -18.3125 L 14.890625 -18.3125 C 15.265625 -18.3125 15.4375 -18.515625 15.4375 -18.859375 L 15.4375 -22.5 C 15.4375 -25.71875 13.71875 -27.4375 10.5 -27.4375 Z M 6.65625 -27.4375 "/></g></g></g><g fill="#f4f6fc" fill-opacity="1"><g transform="translate(515.545384, 646.157117)"><g><path d="M 1.71875 -0.546875 C 1.71875 -0.203125 1.921875 0 2.265625 0 L 5.828125 0 C 6.203125 0 6.375 -0.203125 6.375 -0.546875 L 6.375 -9.1875 L 10.5 -9.1875 C 13.71875 -9.1875 15.4375 -10.9375 15.4375 -14.125 L 15.4375 -22.5 C 15.4375 -25.71875 13.71875 -27.4375 10.5 -27.4375 L 2.265625 -27.4375 C 1.921875 -27.4375 1.71875 -27.234375 1.71875 -26.890625 Z M 6.375 -13.71875 L 6.375 -22.90625 L 9.390625 -22.90625 C 10.328125 -22.90625 10.765625 -22.4375 10.765625 -21.53125 L 10.765625 -15.09375 C 10.765625 -14.234375 10.328125 -13.71875 9.390625 -13.71875 Z M 6.375 -13.71875 "/></g></g></g><g fill="#f4f6fc" fill-opacity="1"><g transform="translate(534.39977, 646.157117)"><g><path d="M 18.25 0 C 18.65625 0 18.796875 -0.203125 18.71875 -0.578125 L 13.03125 -26.953125 C 12.96875 -27.296875 12.765625 -27.4375 12.453125 -27.4375 L 7.6875 -27.4375 C 7.375 -27.4375 7.171875 -27.296875 7.09375 -26.953125 L 1.40625 -0.578125 C 1.296875 -0.203125 1.46875 0 1.859375 0 L 5.515625 0 C 5.828125 0 6 -0.171875 6.078125 -0.484375 L 7 -5.484375 L 13.09375 -5.484375 L 14.0625 -0.484375 C 14.125 -0.171875 14.296875 0 14.609375 0 Z M 12.25 -9.46875 L 7.859375 -9.46875 L 10.046875 -21.4375 Z M 12.25 -9.46875 "/></g></g></g><g fill="#f4f6fc" fill-opacity="1"><g transform="translate(556.202176, 646.157117)"><g><path d="M 15.46875 -22.5 C 15.46875 -25.71875 13.71875 -27.4375 10.53125 -27.4375 L 6.6875 -27.4375 C 3.46875 -27.4375 1.71875 -25.71875 1.71875 -22.5 L 1.71875 -4.9375 C 1.71875 -1.71875 3.46875 0 6.6875 0 L 10.53125 0 C 13.71875 0 15.46875 -1.71875 15.46875 -4.9375 L 15.46875 -8.640625 C 15.46875 -8.984375 15.265625 -9.1875 14.921875 -9.1875 L 11.484375 -9.1875 C 11.109375 -9.1875 10.9375 -8.984375 10.9375 -8.640625 L 10.9375 -5.90625 C 10.9375 -4.96875 10.453125 -4.53125 9.5625 -4.53125 L 7.78125 -4.53125 C 6.890625 -4.53125 6.40625 -4.96875 6.40625 -5.90625 L 6.40625 -21.53125 C 6.40625 -22.4375 6.859375 -22.90625 7.78125 -22.90625 L 9.5625 -22.90625 C 10.453125 -22.90625 10.9375 -22.4375 10.9375 -21.53125 L 10.9375 -18.796875 C 10.9375 -18.453125 11.109375 -18.25 11.484375 -18.25 L 14.921875 -18.25 C 15.265625 -18.25 15.46875 -18.453125 15.46875 -18.796875 Z M 15.46875 -22.5 "/></g></g></g><g fill="#f4f6fc" fill-opacity="1"><g transform="translate(575.090843, 646.157117)"><g><path d="M 15.40625 -26.890625 C 15.40625 -27.234375 15.265625 -27.4375 14.84375 -27.4375 L 2.234375 -27.4375 C 1.921875 -27.4375 1.71875 -27.234375 1.71875 -26.890625 L 1.71875 -0.546875 C 1.71875 -0.203125 1.921875 0 2.234375 0 L 14.84375 0 C 15.265625 0 15.40625 -0.203125 15.40625 -0.546875 L 15.40625 -3.984375 C 15.40625 -4.359375 15.265625 -4.53125 14.84375 -4.53125 L 6.28125 -4.53125 L 6.28125 -11.453125 L 12.828125 -11.453125 C 13.171875 -11.453125 13.375 -11.65625 13.375 -12.03125 L 13.375 -15.4375 C 13.375 -15.8125 13.171875 -16.015625 12.828125 -16.015625 L 6.28125 -16.015625 L 6.28125 -22.875 L 14.84375 -22.875 C 15.265625 -22.875 15.40625 -23.109375 15.40625 -23.453125 Z M 15.40625 -26.890625 "/></g></g></g></svg>