<svg xmlns="http://www.w3.org/2000/svg" xmlns:xlink="http://www.w3.org/1999/xlink" width="500" zoomAndPan="magnify" viewBox="0 0 375 374.999991" height="500" preserveAspectRatio="xMidYMid meet" version="1.0"><defs><g/></defs><rect x="-37.5" width="450" fill="#ffffff" y="-37.499999" height="449.999989" fill-opacity="1"/><rect x="-37.5" width="450" fill="#ffffff" y="-37.499999" height="449.999989" fill-opacity="1"/><g fill="#ffb163" fill-opacity="1"><g transform="translate(48.326857, 228.577846)"><g><path d="M 17.679688 -39.621094 C 17.136719 -39.621094 16.886719 -39.324219 16.886719 -38.828125 L 16.886719 -17.929688 L 16.589844 -17.929688 L 9.0625 -38.976562 C 8.914062 -39.421875 8.617188 -39.621094 8.171875 -39.621094 L 3.269531 -39.621094 C 2.773438 -39.621094 2.476562 -39.324219 2.476562 -38.828125 L 2.476562 -0.792969 C 2.476562 -0.296875 2.773438 0 3.269531 0 L 8.417969 0 C 8.964844 0 9.210938 -0.296875 9.210938 -0.792969 L 9.210938 -21.789062 L 9.460938 -21.789062 L 17.035156 -0.644531 C 17.183594 -0.199219 17.480469 0 17.929688 0 L 22.832031 0 C 23.324219 0 23.625 -0.296875 23.625 -0.792969 L 23.625 -38.828125 C 23.625 -39.324219 23.324219 -39.621094 22.832031 -39.621094 Z M 17.679688 -39.621094 "/></g></g></g><g fill="#ffb163" fill-opacity="1"><g transform="translate(74.424663, 228.577846)"><g><path d="M 22.238281 -38.828125 C 22.238281 -39.324219 22.039062 -39.621094 21.445312 -39.621094 L 3.21875 -39.621094 C 2.773438 -39.621094 2.476562 -39.324219 2.476562 -38.828125 L 2.476562 -0.792969 C 2.476562 -0.296875 2.773438 0 3.21875 0 L 21.445312 0 C 22.039062 0 22.238281 -0.296875 22.238281 -0.792969 L 22.238281 -5.746094 C 22.238281 -6.289062 22.039062 -6.539062 21.445312 -6.539062 L 9.0625 -6.539062 L 9.0625 -16.542969 L 18.523438 -16.542969 C 19.015625 -16.542969 19.316406 -16.839844 19.316406 -17.382812 L 19.316406 -22.285156 C 19.316406 -22.832031 19.015625 -23.128906 18.523438 -23.128906 L 9.0625 -23.128906 L 9.0625 -33.03125 L 21.445312 -33.03125 C 22.039062 -33.03125 22.238281 -33.378906 22.238281 -33.875 Z M 22.238281 -38.828125 "/></g></g></g><g fill="#ffb163" fill-opacity="1"><g transform="translate(99.135868, 228.577846)"><g><path d="M 29.566406 -39.621094 C 28.972656 -39.621094 28.574219 -39.273438 28.527344 -38.679688 L 26.496094 -15.5 L 26.25 -15.5 L 21.394531 -38.726562 C 21.246094 -39.324219 20.898438 -39.621094 20.304688 -39.621094 L 17.332031 -39.621094 C 16.738281 -39.621094 16.394531 -39.324219 16.242188 -38.726562 L 11.339844 -15.5 L 11.09375 -15.5 L 9.160156 -38.679688 C 9.113281 -39.273438 8.714844 -39.621094 8.121094 -39.621094 L 3.417969 -39.621094 C 2.773438 -39.621094 2.425781 -39.222656 2.476562 -38.578125 L 6.539062 -0.941406 C 6.585938 -0.296875 6.933594 0 7.578125 0 L 12.53125 0 C 13.125 0 13.472656 -0.296875 13.621094 -0.84375 L 18.820312 -23.277344 L 23.96875 -0.890625 C 24.117188 -0.296875 24.464844 0 25.058594 0 L 29.914062 0 C 30.558594 0 30.902344 -0.296875 30.953125 -0.941406 L 35.210938 -38.578125 C 35.261719 -39.222656 34.914062 -39.621094 34.269531 -39.621094 Z M 29.566406 -39.621094 "/></g></g></g><g fill="#ffb163" fill-opacity="1"><g transform="translate(136.821689, 228.577846)"><g/></g></g><g fill="#ffb163" fill-opacity="1"><g transform="translate(149.202048, 228.577846)"><g><path d="M 15.550781 -8.519531 C 15.550781 -7.230469 14.855469 -6.539062 13.570312 -6.539062 L 10.996094 -6.539062 C 9.707031 -6.539062 9.011719 -7.230469 9.011719 -8.519531 L 9.011719 -12.28125 C 9.011719 -12.777344 8.714844 -13.074219 8.222656 -13.074219 L 3.269531 -13.074219 C 2.722656 -13.074219 2.476562 -12.777344 2.476562 -12.28125 L 2.476562 -7.132812 C 2.476562 -2.476562 4.953125 0 9.609375 0 L 15.15625 0 C 19.761719 0 22.285156 -2.476562 22.285156 -7.132812 L 22.285156 -38.828125 C 22.285156 -39.324219 21.988281 -39.621094 21.492188 -39.621094 L 16.34375 -39.621094 C 15.796875 -39.621094 15.550781 -39.324219 15.550781 -38.828125 Z M 15.550781 -8.519531 "/></g></g></g><g fill="#ffb163" fill-opacity="1"><g transform="translate(173.962766, 228.577846)"><g><path d="M 2.476562 -7.132812 C 2.476562 -2.476562 4.953125 0 9.609375 0 L 15.15625 0 C 19.808594 0 22.285156 -2.476562 22.285156 -7.132812 L 22.285156 -32.488281 C 22.285156 -37.144531 19.808594 -39.621094 15.15625 -39.621094 L 9.609375 -39.621094 C 4.953125 -39.621094 2.476562 -37.144531 2.476562 -32.488281 Z M 11.042969 -6.390625 C 9.757812 -6.390625 9.0625 -7.03125 9.0625 -8.371094 L 9.0625 -31.25 C 9.0625 -32.539062 9.757812 -33.230469 11.042969 -33.230469 L 13.917969 -33.230469 C 15.203125 -33.230469 15.898438 -32.539062 15.898438 -31.25 L 15.898438 -8.371094 C 15.898438 -7.03125 15.203125 -6.390625 13.917969 -6.390625 Z M 11.042969 -6.390625 "/></g></g></g><g fill="#ffb163" fill-opacity="1"><g transform="translate(198.723485, 228.577846)"><g><path d="M 16.738281 -39.621094 C 16.195312 -39.621094 15.75 -39.175781 15.75 -38.628906 L 15.75 -8.519531 C 15.75 -7.179688 15.054688 -6.539062 13.769531 -6.539062 L 11.191406 -6.539062 C 9.90625 -6.539062 9.210938 -7.179688 9.210938 -8.519531 L 9.210938 -38.628906 C 9.210938 -39.175781 8.765625 -39.621094 8.222656 -39.621094 L 3.464844 -39.621094 C 2.921875 -39.621094 2.476562 -39.175781 2.476562 -38.628906 L 2.476562 -7.132812 C 2.476562 -2.476562 4.953125 0 9.609375 0 L 15.15625 0 C 19.808594 0 22.285156 -2.476562 22.285156 -7.132812 L 22.285156 -38.628906 C 22.285156 -39.175781 21.839844 -39.621094 21.296875 -39.621094 Z M 16.738281 -39.621094 "/></g></g></g><g fill="#ffb163" fill-opacity="1"><g transform="translate(223.484203, 228.577846)"><g><path d="M 22.832031 -32.488281 C 22.832031 -37.144531 20.355469 -39.621094 15.699219 -39.621094 L 3.269531 -39.621094 C 2.773438 -39.621094 2.476562 -39.324219 2.476562 -38.828125 L 2.476562 -0.792969 C 2.476562 -0.296875 2.773438 0 3.269531 0 L 8.417969 0 C 8.914062 0 9.210938 -0.296875 9.210938 -0.792969 L 9.210938 -13.273438 L 12.628906 -13.273438 L 15.945312 -0.691406 C 16.046875 -0.246094 16.292969 0 16.789062 0 L 21.9375 0 C 22.484375 0 22.78125 -0.296875 22.632812 -0.890625 L 19.214844 -13.867188 C 21.59375 -14.90625 22.832031 -17.085938 22.832031 -20.402344 Z M 9.210938 -19.808594 L 9.210938 -33.082031 L 14.113281 -33.082031 C 15.402344 -33.082031 16.09375 -32.390625 16.09375 -31.101562 L 16.09375 -21.789062 C 16.09375 -20.503906 15.402344 -19.808594 14.113281 -19.808594 Z M 9.210938 -19.808594 "/></g></g></g><g fill="#ffb163" fill-opacity="1"><g transform="translate(248.789665, 228.577846)"><g><path d="M 17.679688 -39.621094 C 17.136719 -39.621094 16.886719 -39.324219 16.886719 -38.828125 L 16.886719 -17.929688 L 16.589844 -17.929688 L 9.0625 -38.976562 C 8.914062 -39.421875 8.617188 -39.621094 8.171875 -39.621094 L 3.269531 -39.621094 C 2.773438 -39.621094 2.476562 -39.324219 2.476562 -38.828125 L 2.476562 -0.792969 C 2.476562 -0.296875 2.773438 0 3.269531 0 L 8.417969 0 C 8.964844 0 9.210938 -0.296875 9.210938 -0.792969 L 9.210938 -21.789062 L 9.460938 -21.789062 L 17.035156 -0.644531 C 17.183594 -0.199219 17.480469 0 17.929688 0 L 22.832031 0 C 23.324219 0 23.625 -0.296875 23.625 -0.792969 L 23.625 -38.828125 C 23.625 -39.324219 23.324219 -39.621094 22.832031 -39.621094 Z M 17.679688 -39.621094 "/></g></g></g><g fill="#ffb163" fill-opacity="1"><g transform="translate(274.88747, 228.577846)"><g><path d="M 22.238281 -38.828125 C 22.238281 -39.324219 22.039062 -39.621094 21.445312 -39.621094 L 3.21875 -39.621094 C 2.773438 -39.621094 2.476562 -39.324219 2.476562 -38.828125 L 2.476562 -0.792969 C 2.476562 -0.296875 2.773438 0 3.21875 0 L 21.445312 0 C 22.039062 0 22.238281 -0.296875 22.238281 -0.792969 L 22.238281 -5.746094 C 22.238281 -6.289062 22.039062 -6.539062 21.445312 -6.539062 L 9.0625 -6.539062 L 9.0625 -16.542969 L 18.523438 -16.542969 C 19.015625 -16.542969 19.316406 -16.839844 19.316406 -17.382812 L 19.316406 -22.285156 C 19.316406 -22.832031 19.015625 -23.128906 18.523438 -23.128906 L 9.0625 -23.128906 L 9.0625 -33.03125 L 21.445312 -33.03125 C 22.039062 -33.03125 22.238281 -33.378906 22.238281 -33.875 Z M 22.238281 -38.828125 "/></g></g></g><g fill="#ffb163" fill-opacity="1"><g transform="translate(299.598676, 228.577846)"><g><path d="M 20.207031 -39.621094 C 19.613281 -39.621094 19.265625 -39.371094 19.066406 -38.828125 L 13.519531 -24.613281 L 7.972656 -38.828125 C 7.773438 -39.371094 7.429688 -39.621094 6.835938 -39.621094 L 1.882812 -39.621094 C 1.140625 -39.621094 0.792969 -39.175781 1.089844 -38.480469 L 10.152344 -16.441406 L 10.152344 -0.992188 C 10.152344 -0.347656 10.5 0 11.144531 0 L 15.898438 0 C 16.542969 0 16.886719 -0.347656 16.886719 -0.992188 L 16.886719 -16.441406 L 25.949219 -38.480469 C 26.25 -39.175781 25.902344 -39.621094 25.160156 -39.621094 Z M 20.207031 -39.621094 "/></g></g></g><g fill="#2f2e41" fill-opacity="1"><g transform="translate(87.995487, 256.910481)"><g><path d="M 8.199219 -14.289062 C 8.199219 -14.46875 8.089844 -14.578125 7.910156 -14.578125 L 1.203125 -14.578125 C 1.003906 -14.578125 0.910156 -14.46875 0.910156 -14.289062 L 0.910156 -0.292969 C 0.910156 -0.109375 1.003906 0 1.203125 0 L 3.097656 0 C 3.28125 0 3.390625 -0.109375 3.390625 -0.292969 L 3.390625 -6.105469 L 6.816406 -6.105469 C 7 -6.105469 7.109375 -6.195312 7.109375 -6.398438 L 7.109375 -8.21875 C 7.109375 -8.402344 7 -8.511719 6.816406 -8.511719 L 3.390625 -8.511719 L 3.390625 -12.175781 L 7.910156 -12.175781 C 8.089844 -12.175781 8.199219 -12.285156 8.199219 -12.464844 Z M 8.199219 -14.289062 "/></g></g></g><g fill="#2f2e41" fill-opacity="1"><g transform="translate(98.016651, 256.910481)"><g><path d="M 1.203125 -14.578125 C 1.003906 -14.578125 0.910156 -14.46875 0.910156 -14.289062 L 0.910156 -0.292969 C 0.910156 -0.109375 1.003906 0 1.203125 0 L 3.097656 0 C 3.28125 0 3.390625 -0.109375 3.390625 -0.292969 L 3.390625 -14.289062 C 3.390625 -14.46875 3.28125 -14.578125 3.097656 -14.578125 Z M 1.203125 -14.578125 "/></g></g></g><g fill="#2f2e41" fill-opacity="1"><g transform="translate(103.227945, 256.910481)"><g><path d="M 6.507812 -14.578125 C 6.304688 -14.578125 6.214844 -14.46875 6.214844 -14.289062 L 6.214844 -6.597656 L 6.105469 -6.597656 L 3.335938 -14.34375 C 3.28125 -14.507812 3.171875 -14.578125 3.007812 -14.578125 L 1.203125 -14.578125 C 1.019531 -14.578125 0.910156 -14.46875 0.910156 -14.289062 L 0.910156 -0.292969 C 0.910156 -0.109375 1.019531 0 1.203125 0 L 3.097656 0 C 3.296875 0 3.390625 -0.109375 3.390625 -0.292969 L 3.390625 -8.019531 L 3.480469 -8.019531 L 6.269531 -0.238281 C 6.324219 -0.0742188 6.433594 0 6.597656 0 L 8.402344 0 C 8.582031 0 8.691406 -0.109375 8.691406 -0.292969 L 8.691406 -14.289062 C 8.691406 -14.46875 8.582031 -14.578125 8.402344 -14.578125 Z M 6.507812 -14.578125 "/></g></g></g><g fill="#2f2e41" fill-opacity="1"><g transform="translate(113.741029, 256.910481)"><g><path d="M 0.910156 -0.292969 C 0.910156 -0.0898438 1.003906 0 1.203125 0 L 5.578125 0 C 7.289062 0 8.199219 -0.910156 8.199219 -2.625 L 8.199219 -11.9375 C 8.199219 -13.648438 7.289062 -14.578125 5.578125 -14.578125 L 1.203125 -14.578125 C 1.003906 -14.578125 0.910156 -14.46875 0.910156 -14.289062 Z M 3.390625 -2.40625 L 3.390625 -12.175781 L 5.066406 -12.175781 C 5.539062 -12.175781 5.796875 -11.917969 5.796875 -11.425781 L 5.796875 -3.132812 C 5.796875 -2.640625 5.539062 -2.40625 5.066406 -2.40625 Z M 3.390625 -2.40625 "/></g></g></g><g fill="#2f2e41" fill-opacity="1"><g transform="translate(123.762192, 256.910481)"><g/></g></g><g fill="#2f2e41" fill-opacity="1"><g transform="translate(129.228552, 256.910481)"><g><path d="M 7.4375 -14.578125 C 7.21875 -14.578125 7.089844 -14.488281 7.015625 -14.289062 L 4.976562 -9.058594 L 2.933594 -14.289062 C 2.859375 -14.488281 2.734375 -14.578125 2.515625 -14.578125 L 0.691406 -14.578125 C 0.417969 -14.578125 0.292969 -14.414062 0.402344 -14.160156 L 3.734375 -6.050781 L 3.734375 -0.363281 C 3.734375 -0.128906 3.863281 0 4.101562 0 L 5.851562 0 C 6.085938 0 6.214844 -0.128906 6.214844 -0.363281 L 6.214844 -6.050781 L 9.550781 -14.160156 C 9.660156 -14.414062 9.53125 -14.578125 9.257812 -14.578125 Z M 7.4375 -14.578125 "/></g></g></g><g fill="#2f2e41" fill-opacity="1"><g transform="translate(140.087805, 256.910481)"><g><path d="M 0.910156 -2.625 C 0.910156 -0.910156 1.824219 0 3.535156 0 L 5.578125 0 C 7.289062 0 8.199219 -0.910156 8.199219 -2.625 L 8.199219 -11.957031 C 8.199219 -13.667969 7.289062 -14.578125 5.578125 -14.578125 L 3.535156 -14.578125 C 1.824219 -14.578125 0.910156 -13.667969 0.910156 -11.957031 Z M 4.0625 -2.351562 C 3.589844 -2.351562 3.335938 -2.589844 3.335938 -3.078125 L 3.335938 -11.5 C 3.335938 -11.972656 3.589844 -12.230469 4.0625 -12.230469 L 5.121094 -12.230469 C 5.59375 -12.230469 5.851562 -11.972656 5.851562 -11.5 L 5.851562 -3.078125 C 5.851562 -2.589844 5.59375 -2.351562 5.121094 -2.351562 Z M 4.0625 -2.351562 "/></g></g></g><g fill="#2f2e41" fill-opacity="1"><g transform="translate(150.108968, 256.910481)"><g><path d="M 6.160156 -14.578125 C 5.960938 -14.578125 5.796875 -14.414062 5.796875 -14.214844 L 5.796875 -3.132812 C 5.796875 -2.640625 5.539062 -2.40625 5.066406 -2.40625 L 4.117188 -2.40625 C 3.644531 -2.40625 3.390625 -2.640625 3.390625 -3.132812 L 3.390625 -14.214844 C 3.390625 -14.414062 3.226562 -14.578125 3.023438 -14.578125 L 1.277344 -14.578125 C 1.074219 -14.578125 0.910156 -14.414062 0.910156 -14.214844 L 0.910156 -2.625 C 0.910156 -0.910156 1.824219 0 3.535156 0 L 5.578125 0 C 7.289062 0 8.199219 -0.910156 8.199219 -2.625 L 8.199219 -14.214844 C 8.199219 -14.414062 8.035156 -14.578125 7.835938 -14.578125 Z M 6.160156 -14.578125 "/></g></g></g><g fill="#2f2e41" fill-opacity="1"><g transform="translate(160.130135, 256.910481)"><g><path d="M 8.402344 -11.957031 C 8.402344 -13.667969 7.492188 -14.578125 5.777344 -14.578125 L 1.203125 -14.578125 C 1.019531 -14.578125 0.910156 -14.46875 0.910156 -14.289062 L 0.910156 -0.292969 C 0.910156 -0.109375 1.019531 0 1.203125 0 L 3.097656 0 C 3.28125 0 3.390625 -0.109375 3.390625 -0.292969 L 3.390625 -4.882812 L 4.648438 -4.882812 L 5.867188 -0.253906 C 5.90625 -0.0898438 5.996094 0 6.179688 0 L 8.074219 0 C 8.273438 0 8.382812 -0.109375 8.328125 -0.328125 L 7.070312 -5.101562 C 7.945312 -5.484375 8.402344 -6.289062 8.402344 -7.507812 Z M 3.390625 -7.289062 L 3.390625 -12.175781 L 5.195312 -12.175781 C 5.667969 -12.175781 5.921875 -11.917969 5.921875 -11.445312 L 5.921875 -8.019531 C 5.921875 -7.546875 5.667969 -7.289062 5.195312 -7.289062 Z M 3.390625 -7.289062 "/></g></g></g><g fill="#2f2e41" fill-opacity="1"><g transform="translate(170.351722, 256.910481)"><g/></g></g><g fill="#2f2e41" fill-opacity="1"><g transform="translate(175.818082, 256.910481)"><g><path d="M 0.910156 -0.292969 C 0.910156 -0.0898438 1.003906 0 1.203125 0 L 5.578125 0 C 7.289062 0 8.199219 -0.910156 8.199219 -2.625 L 8.199219 -11.9375 C 8.199219 -13.648438 7.289062 -14.578125 5.578125 -14.578125 L 1.203125 -14.578125 C 1.003906 -14.578125 0.910156 -14.46875 0.910156 -14.289062 Z M 3.390625 -2.40625 L 3.390625 -12.175781 L 5.066406 -12.175781 C 5.539062 -12.175781 5.796875 -11.917969 5.796875 -11.425781 L 5.796875 -3.132812 C 5.796875 -2.640625 5.539062 -2.40625 5.066406 -2.40625 Z M 3.390625 -2.40625 "/></g></g></g><g fill="#2f2e41" fill-opacity="1"><g transform="translate(185.839245, 256.910481)"><g><path d="M 8.402344 -11.957031 C 8.402344 -13.667969 7.492188 -14.578125 5.777344 -14.578125 L 1.203125 -14.578125 C 1.019531 -14.578125 0.910156 -14.46875 0.910156 -14.289062 L 0.910156 -0.292969 C 0.910156 -0.109375 1.019531 0 1.203125 0 L 3.097656 0 C 3.28125 0 3.390625 -0.109375 3.390625 -0.292969 L 3.390625 -4.882812 L 4.648438 -4.882812 L 5.867188 -0.253906 C 5.90625 -0.0898438 5.996094 0 6.179688 0 L 8.074219 0 C 8.273438 0 8.382812 -0.109375 8.328125 -0.328125 L 7.070312 -5.101562 C 7.945312 -5.484375 8.402344 -6.289062 8.402344 -7.507812 Z M 3.390625 -7.289062 L 3.390625 -12.175781 L 5.195312 -12.175781 C 5.667969 -12.175781 5.921875 -11.917969 5.921875 -11.445312 L 5.921875 -8.019531 C 5.921875 -7.546875 5.667969 -7.289062 5.195312 -7.289062 Z M 3.390625 -7.289062 "/></g></g></g><g fill="#2f2e41" fill-opacity="1"><g transform="translate(196.060831, 256.910481)"><g><path d="M 8.183594 -14.289062 C 8.183594 -14.46875 8.109375 -14.578125 7.890625 -14.578125 L 1.183594 -14.578125 C 1.019531 -14.578125 0.910156 -14.46875 0.910156 -14.289062 L 0.910156 -0.292969 C 0.910156 -0.109375 1.019531 0 1.183594 0 L 7.890625 0 C 8.109375 0 8.183594 -0.109375 8.183594 -0.292969 L 8.183594 -2.113281 C 8.183594 -2.316406 8.109375 -2.40625 7.890625 -2.40625 L 3.335938 -2.40625 L 3.335938 -6.085938 L 6.816406 -6.085938 C 7 -6.085938 7.109375 -6.195312 7.109375 -6.398438 L 7.109375 -8.199219 C 7.109375 -8.402344 7 -8.511719 6.816406 -8.511719 L 3.335938 -8.511719 L 3.335938 -12.15625 L 7.890625 -12.15625 C 8.109375 -12.15625 8.183594 -12.285156 8.183594 -12.464844 Z M 8.183594 -14.289062 "/></g></g></g><g fill="#2f2e41" fill-opacity="1"><g transform="translate(206.06378, 256.910481)"><g><path d="M 9.695312 0 C 9.914062 0 9.988281 -0.109375 9.949219 -0.308594 L 6.925781 -14.324219 C 6.890625 -14.507812 6.78125 -14.578125 6.617188 -14.578125 L 4.082031 -14.578125 C 3.917969 -14.578125 3.808594 -14.507812 3.773438 -14.324219 L 0.746094 -0.308594 C 0.691406 -0.109375 0.785156 0 0.984375 0 L 2.933594 0 C 3.097656 0 3.1875 -0.0898438 3.226562 -0.253906 L 3.71875 -2.914062 L 6.960938 -2.914062 L 7.472656 -0.253906 C 7.507812 -0.0898438 7.601562 0 7.765625 0 Z M 6.507812 -5.03125 L 4.171875 -5.03125 L 5.339844 -11.390625 Z M 6.507812 -5.03125 "/></g></g></g><g fill="#2f2e41" fill-opacity="1"><g transform="translate(217.651804, 256.910481)"><g><path d="M 8.527344 -14.578125 C 8.308594 -14.578125 8.183594 -14.46875 8.128906 -14.25 L 6.105469 -5.175781 L 4.082031 -14.25 C 4.027344 -14.46875 3.898438 -14.578125 3.679688 -14.578125 L 1.277344 -14.578125 C 1.039062 -14.578125 0.910156 -14.453125 0.910156 -14.214844 L 0.910156 -0.363281 C 0.910156 -0.128906 1.039062 0 1.277344 0 L 2.953125 0 C 3.1875 0 3.316406 -0.128906 3.316406 -0.363281 L 3.316406 -8.566406 L 3.445312 -8.566406 L 5.25 -0.328125 C 5.304688 -0.109375 5.429688 0 5.648438 0 L 6.542969 0 C 6.761719 0 6.890625 -0.109375 6.945312 -0.328125 L 8.746094 -8.566406 L 8.875 -8.566406 L 8.875 -0.363281 C 8.875 -0.128906 9.003906 0 9.238281 0 L 10.933594 0 C 11.171875 0 11.300781 -0.128906 11.300781 -0.363281 L 11.300781 -14.214844 C 11.300781 -14.453125 11.171875 -14.578125 10.933594 -14.578125 Z M 8.527344 -14.578125 "/></g></g></g><g fill="#2f2e41" fill-opacity="1"><g transform="translate(230.770245, 256.910481)"><g/></g></g><g fill="#2f2e41" fill-opacity="1"><g transform="translate(236.236613, 256.910481)"><g><path d="M 3.535156 -14.578125 C 1.839844 -14.578125 0.910156 -13.667969 0.910156 -11.957031 L 0.910156 -7.65625 C 0.910156 -7.308594 1.074219 -7.089844 1.402344 -6.980469 L 5.722656 -5.558594 L 5.722656 -3.132812 C 5.722656 -2.640625 5.46875 -2.40625 4.992188 -2.40625 L 4.117188 -2.40625 C 3.664062 -2.40625 3.390625 -2.640625 3.390625 -3.132812 L 3.390625 -4.539062 C 3.390625 -4.738281 3.296875 -4.828125 3.097656 -4.828125 L 1.203125 -4.828125 C 1.019531 -4.828125 0.910156 -4.738281 0.910156 -4.539062 L 0.910156 -2.625 C 0.910156 -0.910156 1.839844 0 3.535156 0 L 5.578125 0 C 7.289062 0 8.199219 -0.910156 8.199219 -2.625 L 8.199219 -6.835938 C 8.199219 -7.179688 8.035156 -7.382812 7.726562 -7.507812 L 3.390625 -8.929688 L 3.390625 -11.445312 C 3.390625 -11.917969 3.664062 -12.175781 4.117188 -12.175781 L 4.992188 -12.175781 C 5.484375 -12.175781 5.722656 -11.917969 5.722656 -11.445312 L 5.722656 -10.023438 C 5.722656 -9.839844 5.832031 -9.730469 6.015625 -9.730469 L 7.910156 -9.730469 C 8.109375 -9.730469 8.199219 -9.839844 8.199219 -10.023438 L 8.199219 -11.957031 C 8.199219 -13.667969 7.289062 -14.578125 5.578125 -14.578125 Z M 3.535156 -14.578125 "/></g></g></g><g fill="#2f2e41" fill-opacity="1"><g transform="translate(246.257784, 256.910481)"><g><path d="M 0.910156 -0.292969 C 0.910156 -0.109375 1.019531 0 1.203125 0 L 3.097656 0 C 3.296875 0 3.390625 -0.109375 3.390625 -0.292969 L 3.390625 -4.882812 L 5.578125 -4.882812 C 7.289062 -4.882812 8.199219 -5.8125 8.199219 -7.507812 L 8.199219 -11.957031 C 8.199219 -13.667969 7.289062 -14.578125 5.578125 -14.578125 L 1.203125 -14.578125 C 1.019531 -14.578125 0.910156 -14.46875 0.910156 -14.289062 Z M 3.390625 -7.289062 L 3.390625 -12.175781 L 4.992188 -12.175781 C 5.484375 -12.175781 5.722656 -11.917969 5.722656 -11.445312 L 5.722656 -8.019531 C 5.722656 -7.5625 5.484375 -7.289062 4.992188 -7.289062 Z M 3.390625 -7.289062 "/></g></g></g><g fill="#2f2e41" fill-opacity="1"><g transform="translate(256.278955, 256.910481)"><g><path d="M 9.695312 0 C 9.914062 0 9.988281 -0.109375 9.949219 -0.308594 L 6.925781 -14.324219 C 6.890625 -14.507812 6.78125 -14.578125 6.617188 -14.578125 L 4.082031 -14.578125 C 3.917969 -14.578125 3.808594 -14.507812 3.773438 -14.324219 L 0.746094 -0.308594 C 0.691406 -0.109375 0.785156 0 0.984375 0 L 2.933594 0 C 3.097656 0 3.1875 -0.0898438 3.226562 -0.253906 L 3.71875 -2.914062 L 6.960938 -2.914062 L 7.472656 -0.253906 C 7.507812 -0.0898438 7.601562 0 7.765625 0 Z M 6.507812 -5.03125 L 4.171875 -5.03125 L 5.339844 -11.390625 Z M 6.507812 -5.03125 "/></g></g></g><g fill="#2f2e41" fill-opacity="1"><g transform="translate(267.866988, 256.910481)"><g><path d="M 8.21875 -11.957031 C 8.21875 -13.667969 7.289062 -14.578125 5.59375 -14.578125 L 3.554688 -14.578125 C 1.839844 -14.578125 0.910156 -13.667969 0.910156 -11.957031 L 0.910156 -2.625 C 0.910156 -0.910156 1.839844 0 3.554688 0 L 5.59375 0 C 7.289062 0 8.21875 -0.910156 8.21875 -2.625 L 8.21875 -4.59375 C 8.21875 -4.773438 8.109375 -4.882812 7.925781 -4.882812 L 6.105469 -4.882812 C 5.90625 -4.882812 5.8125 -4.773438 5.8125 -4.59375 L 5.8125 -3.132812 C 5.8125 -2.640625 5.558594 -2.40625 5.085938 -2.40625 L 4.136719 -2.40625 C 3.664062 -2.40625 3.40625 -2.640625 3.40625 -3.132812 L 3.40625 -11.445312 C 3.40625 -11.917969 3.644531 -12.175781 4.136719 -12.175781 L 5.085938 -12.175781 C 5.558594 -12.175781 5.8125 -11.917969 5.8125 -11.445312 L 5.8125 -9.988281 C 5.8125 -9.804688 5.90625 -9.695312 6.105469 -9.695312 L 7.925781 -9.695312 C 8.109375 -9.695312 8.21875 -9.804688 8.21875 -9.988281 Z M 8.21875 -11.957031 "/></g></g></g><g fill="#2f2e41" fill-opacity="1"><g transform="translate(277.906389, 256.910481)"><g><path d="M 8.183594 -14.289062 C 8.183594 -14.46875 8.109375 -14.578125 7.890625 -14.578125 L 1.183594 -14.578125 C 1.019531 -14.578125 0.910156 -14.46875 0.910156 -14.289062 L 0.910156 -0.292969 C 0.910156 -0.109375 1.019531 0 1.183594 0 L 7.890625 0 C 8.109375 0 8.183594 -0.109375 8.183594 -0.292969 L 8.183594 -2.113281 C 8.183594 -2.316406 8.109375 -2.40625 7.890625 -2.40625 L 3.335938 -2.40625 L 3.335938 -6.085938 L 6.816406 -6.085938 C 7 -6.085938 7.109375 -6.195312 7.109375 -6.398438 L 7.109375 -8.199219 C 7.109375 -8.402344 7 -8.511719 6.816406 -8.511719 L 3.335938 -8.511719 L 3.335938 -12.15625 L 7.890625 -12.15625 C 8.109375 -12.15625 8.183594 -12.285156 8.183594 -12.464844 Z M 8.183594 -14.289062 "/></g></g></g></svg>